<?xml version="1.0" encoding="UTF-8"?>
<svg width="40px" height="40px" viewBox="0 0 40 40" version="1.1" xmlns="http://www.w3.org/2000/svg" xmlns:xlink="http://www.w3.org/1999/xlink">
    <!-- Generator: Sketch 51.2 (57519) - http://www.bohemiancoding.com/sketch -->
    <title>back</title>
    <desc>Created with Sketch.</desc>
    <defs>
        <path d="M21.3252824,15.8692308 C24.5029048,15.8692308 27.1,18.4538462 27.1,21.6846154 C27.1,24.9153846 24.5029048,27.5 21.3252824,27.5 L18.8198494,27.5 C18.5754169,27.5 18.4226466,27.3153846 18.4226466,27.0692308 L18.4226466,26.0846154 C18.4226466,25.8384615 18.605971,25.6230769 18.8504034,25.6230769 L21.3252824,25.6230769 C23.4946208,25.6230769 25.2362023,23.8692308 25.2362023,21.6846154 C25.2362023,19.5 23.4946208,17.7461538 21.3252824,17.7461538 L17.0782679,17.7461538 C17.0782679,17.7461538 16.8338354,17.7461538 16.7421732,17.7769231 C16.4977407,17.9 16.5588488,18.0846154 16.7727273,18.3 L18.2698763,19.8076923 C18.4532006,19.9923077 18.4226466,20.2692308 18.2393222,20.4538462 L17.5671329,21.1307692 C17.3838085,21.3153846 17.1699301,21.3153846 16.9866057,21.1615385 L13.0145777,17.1615385 C12.8618074,17.0076923 12.8618074,16.7615385 13.0145777,16.6076923 L16.9560516,12.6384615 C17.139376,12.4538462 17.4449166,12.4538462 17.5976869,12.6384615 L18.2393222,13.2846154 C18.4226466,13.4692308 18.4226466,13.7769231 18.2393222,13.9307692 L16.7421732,15.4384615 C16.5588488,15.6230769 16.5588488,15.8384615 16.8643895,15.8384615 L17.0782679,15.8384615 L21.3252824,15.8692308 L21.3252824,15.8692308 Z" id="path-1"></path>
    </defs>
    <g id="back" stroke="none" stroke-width="1" fill="none" fill-rule="evenodd">
        <g id="icon/back/normal">
            <rect id="Rectangle-2" stroke="none" fill="#fff" opacity="100" x="0.5" y="0.5" width="39" height="39"></rect>
            <mask id="mask-2" fill="white">
                <use xlink:href="#path-1"></use>
            </mask>
            <use id="Mask" fill="#A3A9B0" xlink:href="#path-1"></use>
        </g>
    </g>
</svg>
