<?xml version="1.0" encoding="UTF-8"?>
<svg width="40px" height="41px" viewBox="0 0 40 41" version="1.1" xmlns="http://www.w3.org/2000/svg" xmlns:xlink="http://www.w3.org/1999/xlink">
    <!-- Generator: Sketch 53 (72520) - https://sketchapp.com -->
    <title>huanfu copy 10</title>
    <desc>Created with Sketch.</desc>
    <g id="UI规范" stroke="none" stroke-width="1" fill="none" fill-rule="evenodd">
        <g id="icon" transform="translate(-167.000000, -814.000000)" fill="#C3CACF">
            <g id="分组" transform="translate(177.000000, 824.000000)">
                <path fill="#4FA2F1" d="M17.6378571,20.9535429 C15.8646429,20.9535429 14.4244286,19.5045429 14.4244286,17.7244714 C14.4244286,17.2614 14.5778571,16.7479714 14.7771429,16.3301143 L12.5925,14.1349714 C11.9588571,14.5136143 11.2339286,14.7054 10.4273571,14.7054 C9.63707143,14.7054 8.81078571,14.4497571 8.09892857,13.9922571 L6.20142857,15.6238286 C6.34842857,15.9936857 6.42685714,16.4124 6.42685714,16.8493286 C6.42685714,18.6294 4.98342857,20.0786143 3.21342857,20.0786143 C1.44342857,20.0786143 0,18.6294 0,16.8493286 C0,15.0681857 1.44342857,13.6202571 3.21342857,13.6202571 C3.86014286,13.6202571 4.42178571,13.7400429 4.89192857,13.9785429 L6.8025,12.3366857 C6.48557143,11.6976857 6.342,11.1090429 6.342,10.4756143 C6.342,9.66432857 6.53464286,8.93297143 6.91028571,8.29847143 L6.19178571,7.57525714 C5.98607143,7.6494 5.74757143,7.70768571 5.45035714,7.70768571 C4.11471429,7.70768571 2.98821429,6.57111429 2.98821429,5.2269 C2.98821429,3.86125714 4.0365,2.74975714 5.32628571,2.74975714 C6.66514286,2.74975714 7.79507143,3.88504286 7.79507143,5.22818571 C7.79507143,5.52582857 7.73957143,5.76561429 7.66457143,5.96982857 L8.41242857,6.7239 C9.0165,6.39882857 9.72192857,6.12282857 10.5482143,6.12282857 C10.8942857,6.12282857 11.2665,6.1719 11.6552143,6.2709 L12.2854286,5.28282857 C11.8283571,4.67704286 11.5637143,3.93754286 11.5637143,3.22911429 C11.5637143,1.44904286 13.0071429,4.28571429e-05 14.7805714,4.28571429e-05 C16.5505714,4.28571429e-05 17.9937857,1.44904286 17.9937857,3.22911429 C17.9937857,5.01025714 16.5505714,6.45818571 14.7805714,6.45818571 C14.5812857,6.45818571 14.3982857,6.45818571 14.2155,6.43632857 L13.6733571,7.45654286 C14.4310714,8.20268571 14.8849286,9.31525714 14.8849286,10.4756143 C14.8849286,11.2721143 14.5519286,12.0879 14.2808571,12.6195429 L16.4817857,14.8309714 C16.9030714,14.6119714 17.3766429,14.4943286 17.8566429,14.4943286 L17.886,14.4954 C18.7712143,14.4954 19.6463571,14.9130429 20.2275,15.6124714 C20.7533571,16.2459 20.9721429,17.0113286 20.8512857,17.7782571 C20.8219286,19.5341143 19.3915714,20.9535429 17.6378571,20.9535429" id="Fill-1"></path>
            </g>
        </g>
    </g>
</svg>
