<?xml version="1.0" encoding="UTF-8"?>
<svg width="40px" height="40px" viewBox="0 0 40 40" version="1.1" xmlns="http://www.w3.org/2000/svg" xmlns:xlink="http://www.w3.org/1999/xlink">
    <!-- Generator: Sketch 51.3 (57544) - http://www.bohemiancoding.com/sketch -->
    <title>icon/download/normal</title>
    <desc>Created with Sketch.</desc>
    <defs></defs>
    <g id="icon/download/normal" stroke="none" stroke-width="1" fill="none" fill-rule="evenodd">
        <g>
            <rect id="Rectangle-Copy-2" fill="#fff" opacity="100" x="0" y="0" width="40" height="40"></rect>
            <path d="M27.03125,21.5625 L26.09375,21.5625 C25.84375,21.5625 25.625,21.78125 25.625,22.03125 L25.625,25.15625 C25.625,25.40625 25.40625,25.625 25.15625,25.625 L14.84375,25.625 C14.59375,25.625 14.375,25.40625 14.375,25.15625 L14.375,22.03125 C14.375,21.78125 14.15625,21.5625 13.90625,21.5625 L12.96875,21.5625 C12.71875,21.5625 12.5,21.78125 12.5,22.03125 L12.5,26.25 C12.5,26.9375 13.0625,27.5 13.75,27.5 L26.25,27.5 C26.9375,27.5 27.5,26.9375 27.5,26.25 L27.5,22.03125 C27.5,21.78125 27.28125,21.5625 27.03125,21.5625 Z M19.6875,23.625 C19.875,23.8125 20.15625,23.8125 20.34375,23.625 L24.5625,19.40625 C24.75,19.21875 24.75,18.9375 24.5625,18.75 L23.90625,18.09375 C23.71875,17.90625 23.4375,17.90625 23.25,18.09375 L21.5,19.84375 C21.3125,20.03125 20.96875,19.90625 20.96875,19.625 L20.96875,12.96875 C20.9375,12.71875 20.6875,12.5 20.46875,12.5 L19.53125,12.5 C19.28125,12.5 19.0625,12.71875 19.0625,12.96875 L19.0625,19.59375 C19.0625,19.875 18.71875,20 18.53125,19.8125 L16.78125,18.0625 C16.59375,17.875 16.3125,17.875 16.125,18.0625 L15.46875,18.75 C15.28125,18.9375 15.28125,19.21875 15.46875,19.40625 L19.6875,23.625 L19.6875,23.625 Z" id="Mask" fill="#4FA2F1"></path>
        </g>
    </g>
</svg>
