<?xml version="1.0" encoding="UTF-8"?>
<svg width="40px" height="41px" viewBox="0 0 40 41" version="1.1" xmlns="http://www.w3.org/2000/svg" xmlns:xlink="http://www.w3.org/1999/xlink">
    <!-- Generator: Sketch 53 (72520) - https://sketchapp.com -->
    <title>huanfu copy 11</title>
    <desc>Created with Sketch.</desc>
    <g id="UI规范" stroke="none" stroke-width="1" fill="none" fill-rule="evenodd">
        <g id="icon" transform="translate(-167.000000, -861.000000)" fill="#C3CACF">
            <g id="分组" transform="translate(177.000000, 871.000000)">
                <path d="M15.2795957,20.3872371 C13.6548835,20.3872371 12.3330207,19.0653742 12.3330207,17.4406081 C12.3330207,16.8975623 12.4843374,16.3650397 12.7646835,15.9053152 L11.1207059,13.5653023 C10.9263255,13.6051282 10.7279516,13.625257 10.5273652,13.625257 C10.318846,13.625257 10.1127552,13.6035632 9.91125135,13.5606074 L8.35631539,15.8487603 C8.65954247,16.3210585 8.82327107,16.8734402 8.82327107,17.4406081 C8.82327107,19.0653742 7.50146217,20.3872371 5.87669602,20.3872371 C4.2518759,20.3872371 2.93006701,19.0653742 2.93006701,17.4406081 C2.93006701,15.8158419 4.2518759,14.4939791 5.87669602,14.4939791 C6.05650606,14.4939791 6.23458924,14.5101685 6.40954247,14.5422234 L8.00284726,12.1977314 C7.79751196,11.8558657 7.66297822,11.474228 7.60847397,11.0788834 L5.22734,10.4021133 C4.67134273,11.0846576 3.844713,11.481891 2.94658017,11.481891 C1.32186799,11.481891 5.12820498e-06,10.1600821 5.12820498e-06,8.53536993 C5.12820498e-06,6.91060378 1.32186799,5.58879488 2.94658017,5.58879488 C4.43961874,5.58879488 5.67681114,6.70505262 5.867576,8.14682481 L8.23969789,8.82100455 C8.53580165,8.45561025 8.91317609,8.16776308 9.34300412,7.97958852 L9.3669644,5.62387187 C8.33964033,5.14860565 7.65099808,4.09904816 7.65099808,2.94658017 C7.65099808,1.32186799 8.97286093,5.1282052e-06 10.5976271,5.1282052e-06 C12.2223932,5.1282052e-06 13.5442021,1.32186799 13.5442021,2.94658017 C13.5442021,4.15981229 12.8082329,5.22987633 11.7110787,5.67567789 L11.687712,7.96938921 C12.1073407,8.1488215 12.4791028,8.42339339 12.7749368,8.77265227 L15.1368594,8.1149857 C15.3420867,6.68972667 16.5743683,5.58879488 18.0534301,5.58879488 C19.6781423,5.58879488 21.0000051,6.91060378 21.0000051,8.53536993 C21.0000051,10.1600821 19.6781423,11.481891 18.0534301,11.481891 C17.1572939,11.481891 16.3085387,11.0667953 15.7537287,10.3769119 L13.454405,11.0170939 C13.4049735,11.4428746 13.2630466,11.8535992 13.0396331,12.2184538 L14.6812902,14.5549591 C14.8772357,14.5144317 15.0772824,14.4939791 15.2795957,14.4939791 C16.9043619,14.4939791 18.2262247,15.8158419 18.2262247,17.4406081 C18.2262247,19.0653742 16.9043619,20.3872371 15.2795957,20.3872371" id="Fill-1"></path>
            </g>
        </g>
    </g>
</svg>
