<?xml version="1.0" encoding="UTF-8"?>
<svg width="40px" height="41px" viewBox="0 0 40 41" version="1.1" xmlns="http://www.w3.org/2000/svg" xmlns:xlink="http://www.w3.org/1999/xlink">
    <!-- Generator: Sketch 53 (72520) - https://sketchapp.com -->
    <title>huanfu copy 13</title>
    <desc>Created with Sketch.</desc>
    <g id="UI规范" stroke="none" stroke-width="1" fill="none" fill-rule="evenodd">
        <g id="icon" transform="translate(-167.000000, -954.000000)" fill="#323A4D">
            <path fill="#C3CACF" d="M193.887705,964.139842 L188.212986,964.00061 C187.644216,963.986853 187.09455,964.206367 186.692433,964.609443 L177.614862,973.687045 C176.795046,974.506953 176.795046,975.836464 177.614862,976.655167 L184.345819,983.386155 C185.165604,984.206063 186.495114,984.206063 187.313972,983.386155 L196.391543,974.308553 C196.793537,973.906559 197.014163,973.35677 196.999294,972.78803 L196.860062,967.113405 C196.738697,965.524286 195.4767,964.262289 193.887705,964.139842 Z M189.641605,971.359381 C188.611827,970.32948 188.611827,968.659183 189.641605,967.628324 C190.671536,966.598392 192.341802,966.598392 193.372693,967.628324 C194.402593,968.658102 194.402593,970.328491 193.372693,971.359381 C192.341802,972.389159 190.671536,972.389159 189.641605,971.359381 Z" id="biaoqian-(1)"></path>
        </g>
    </g>
</svg>
