<?xml version="1.0" encoding="UTF-8"?>
<svg width="40px" height="41px" viewBox="0 0 40 41" version="1.1" xmlns="http://www.w3.org/2000/svg" xmlns:xlink="http://www.w3.org/1999/xlink">
    <!-- Generator: Sketch 53 (72520) - https://sketchapp.com -->
    <title>huanfu copy 8</title>
    <desc>Created with Sketch.</desc>
    <defs>
        <polygon id="path-1" points="0 0 20 0 20 20 0 20"></polygon>
    </defs>
    <g id="UI规范" stroke="none" stroke-width="1" fill="none" fill-rule="evenodd">
        <g id="icon" transform="translate(-167.000000, -767.000000)">
            <g id="huanfu-copy-7" transform="translate(177.000000, 778.000000)">
                <mask id="mask-2" fill="white">
                    <use xlink:href="#path-1"></use>
                </mask>
                <g id="Clip-2"></g>
                <path d="M9.9988422,0 C4.44373458,0 0,4.44421813 0,9.99993025 C0,15.5557819 4.44373458,20 9.9988422,20 C10.8894249,20 11.666125,19.2209274 11.666125,18.3325358 C11.666125,17.8861079 11.5545301,17.5535748 11.2242094,17.2209302 C10.998732,16.8883972 10.77783,16.5535762 10.77783,16.1116126 C10.77783,15.2209609 11.5567062,14.4441763 12.4450012,14.4441763 L14.4448924,14.4441763 C17.5561287,14.4441763 20,11.9999275 20,8.88835256 C19.9978239,3.99996652 15.5540893,0 9.9988422,0 Z M4.16692357,9.99993025 C3.27645251,9.99993025 2.4997803,9.22096928 2.4997803,8.33260556 C2.4997803,7.44421395 3.27645251,6.66514137 4.16692357,6.66514137 C5.05521852,6.66514137 5.83420633,7.44421395 5.83420633,8.33260556 C5.83191864,9.22096928 5.05521852,9.99993025 4.16692357,9.99993025 Z M7.4992014,5.83255325 C6.60861875,5.83255325 5.83191864,5.05359228 5.83191864,4.16520066 C5.83191864,3.27680904 6.60861875,2.49776437 7.4992014,2.49776437 C8.38749636,2.49776437 9.16637257,3.27680904 9.16637257,4.16520066 C9.16637257,5.05576862 8.38749636,5.83255325 7.4992014,5.83255325 Z M13.33112,5.83255325 C12.4428251,5.83255325 11.6638373,5.05359228 11.6638373,4.16520066 C11.6638373,3.27680904 12.4428251,2.49776437 13.33112,2.49776437 C14.219415,2.49776437 14.9984028,3.27680904 14.9984028,4.16520066 C14.9984028,5.05576862 14.219415,5.83255325 13.33112,5.83255325 Z M16.6655461,9.99993025 C15.777279,9.99993025 14.9984028,9.22096928 14.9984028,8.33260556 C14.9984028,7.44421395 15.777279,6.66514137 16.6655461,6.66514137 C17.553841,6.66514137 18.3328288,7.44421395 18.3328288,8.33260556 C18.3305411,9.22096928 17.553841,9.99993025 16.6655461,9.99993025 Z" id="Fill-1" fill="#C3CACF" mask="url(#mask-2)"></path>
            </g>
        </g>
    </g>
</svg>
