<?xml version="1.0" encoding="UTF-8"?>
<svg width="40px" height="41px" viewBox="0 0 40 41" version="1.1" xmlns="http://www.w3.org/2000/svg" xmlns:xlink="http://www.w3.org/1999/xlink">
    <!-- Generator: Sketch 53 (72520) - https://sketchapp.com -->
    <title>huanfu copy 12</title>
    <desc>Created with Sketch.</desc>
    <defs>
        <polygon id="path-1" points="0 0 20 0 20 20 0 20"></polygon>
    </defs>
    <g id="UI规范" stroke="none" stroke-width="1" fill="none" fill-rule="evenodd">
        <g id="icon" transform="translate(-167.000000, -908.000000)">
            <g id="question-copy-2" transform="translate(177.000000, 919.000000)">
                <mask id="mask-2" fill="white">
                    <use xlink:href="#path-1"></use>
                </mask>
                <g id="Clip-2"></g>
                <path d="M10,0 C4.47816092,0 0,4.47816092 0,10 C0,15.5218391 4.47816092,20 10,20 C15.5218391,20 20,15.5218391 20,10 C20,4.47816092 15.5218391,0 10,0 Z M9.93568966,16.9977011 C9.12186782,16.9977011 8.45971264,16.349454 8.45971264,15.5516954 C8.45971264,14.7540517 9.11951149,14.1057184 9.93568966,14.1057184 C10.7493678,14.1057184 11.411523,14.7540517 11.411523,15.5516954 C11.411523,16.349454 10.7517241,16.9977011 9.93568966,16.9977011 Z M13.8988506,8.81612069 C13.6092529,9.2712931 12.9953448,9.88965517 12.0529023,10.673592 C11.5655172,11.0781609 11.2621264,11.404569 11.1448276,11.6528736 C11.0276437,11.8987931 10.9724138,12.3402586 10.9838506,12.977069 L8.88278736,12.977069 C8.87818966,12.6758908 8.87359195,12.4919253 8.87359195,12.4252299 C8.87359195,11.7447989 8.98617816,11.1862356 9.21146552,10.7471264 C9.43672414,10.3080172 9.88729885,9.8137931 10.5609195,9.26666667 C11.2345115,8.71721264 11.6390517,8.35859195 11.7701724,8.18853448 C11.9724425,7.9195977 12.0758046,7.62301724 12.0758046,7.30109195 C12.0758046,6.85287356 11.8943103,6.46899425 11.5356609,6.14718391 C11.1770402,5.82761494 10.6896552,5.66663793 10.0804885,5.66663793 C9.49195402,5.66663793 8.99997126,5.83445402 8.60462644,6.16784483 C8.2091954,6.50109195 7.86896552,7.23678161 7.78847701,7.69195402 C7.71258621,8.12186782 5.64137931,8.30347701 5.66663793,7.43221264 C5.69189655,6.56091954 6.14482759,5.61612069 6.92181034,4.93109195 C7.69890805,4.24603448 8.71956897,3.90344828 9.98158046,3.90344828 C11.3104023,3.90344828 12.3655172,4.25063218 13.1517241,4.94477011 C13.9379023,5.63902299 14.3287644,6.44597701 14.3287644,7.36775862 C14.3310057,7.87816092 14.1862069,8.36094828 13.8988506,8.81612069 Z" id="Fill-1" fill="#4FA2F1" mask="url(#mask-2)"></path>
            </g>
        </g>
    </g>
</svg>
