<?xml version="1.0" encoding="UTF-8"?>
<svg width="40px" height="40px" viewBox="0 0 40 40" version="1.1" xmlns="http://www.w3.org/2000/svg" xmlns:xlink="http://www.w3.org/1999/xlink">
    <!-- Generator: Sketch 51.2 (57519) - http://www.bohemiancoding.com/sketch -->
    <title>icon/add/normal</title>
    <desc>Created with Sketch.</desc>
    <defs></defs>
    <g id="icon/add/normal" stroke="none" stroke-width="1" fill="none" fill-rule="evenodd">
        <g>
            <rect id="Rectangle-3" stroke="none" fill="#fff" opacity="100" x="0.5" y="0.5" width="39" height="39"></rect>
            <path d="M21.5694242,17.8069719 L19.6929916,17.8069719 L19.6929916,15.933923 C19.6929916,15.7466181 19.5678961,15.6217482 19.3802529,15.6217482 L18.1292978,15.6217482 C17.9416545,15.6217482 17.816559,15.7466181 17.816559,15.933923 L17.816559,17.8069719 L15.9401264,17.8069719 C15.7524832,17.8069719 15.6273877,17.9318418 15.6273877,18.1191467 L15.6273877,19.367846 C15.6273877,19.5551509 15.7524832,19.6800208 15.9401264,19.6800208 L17.816559,19.6800208 L17.816559,21.5530697 C17.816559,21.7403746 17.9416545,21.8652445 18.1292978,21.8652445 L19.3802529,21.8652445 C19.5678961,21.8652445 19.6929916,21.7403746 19.6929916,21.5530697 L19.6929916,19.6800208 L21.5694242,19.6800208 C21.7570675,19.6800208 21.882163,19.5551509 21.882163,19.367846 L21.882163,18.1191467 C21.882163,17.9318418 21.7570675,17.8069719 21.5694242,17.8069719 Z M27.3863653,25.9859521 L23.7898695,22.4271592 C24.5404425,21.3969823 25.0095507,20.1170656 25.0095507,18.7434964 C25.0095507,15.3095734 22.1949018,12.5 18.7547753,12.5 C15.3146489,12.5 12.5,15.3095734 12.5,18.7434964 C12.5,22.1774194 15.3146489,24.9869927 18.7547753,24.9869927 C20.1308259,24.9869927 21.4130548,24.5187305 22.4450928,23.7695109 L26.0415886,27.3595213 C26.2292319,27.5468262 26.5106967,27.5468262 26.69834,27.3595213 L27.3550914,26.7039542 C27.5427347,26.5166493 27.5427347,26.2044745 27.3863653,25.9859521 Z M18.7547753,23.1139438 C16.3466868,23.1139438 14.3764326,21.1472425 14.3764326,18.7434964 C14.3764326,16.3397503 16.3466868,14.3730489 18.7547753,14.3730489 C21.1628638,14.3730489 23.1331181,16.3397503 23.1331181,18.7434964 C23.1331181,21.1472425 21.1628638,23.1139438 18.7547753,23.1139438 Z" id="Mask" fill="#A3A9B0"></path>
        </g>
    </g>
</svg>
