<?xml version="1.0" encoding="UTF-8"?>
<svg width="40px" height="40px" viewBox="0 0 40 40" version="1.1" xmlns="http://www.w3.org/2000/svg" xmlns:xlink="http://www.w3.org/1999/xlink">
    <!-- Generator: Sketch 49 (51002) - http://www.bohemiancoding.com/sketch -->
    <title>icon/dwindle/deepcolor/pressed</title>
    <desc>Created with Sketch.</desc>
    <defs>
        <path d="M18.316559,17.3069719 L22.0694242,17.3069719 C22.2570675,17.3069719 22.382163,17.4318418 22.382163,17.6191467 L22.382163,18.867846 C22.382163,19.0551509 22.2570675,19.1800208 22.0694242,19.1800208 L18.316559,19.1800208 L16.4401264,19.1800208 C16.2524832,19.1800208 16.1273877,19.0551509 16.1273877,18.867846 L16.1273877,17.6191467 C16.1273877,17.4318418 16.2524832,17.3069719 16.4401264,17.3069719 L18.316559,17.3069719 Z M27.8863653,25.5171696 C28.0427347,25.7044745 28.0427347,26.0166493 27.8550914,26.2039542 L27.19834,26.8595213 C27.0106967,27.0468262 26.7292319,27.0468262 26.5415886,26.8595213 L22.9450928,23.2695109 C21.9130548,24.0187305 20.6308259,24.4869927 19.2547753,24.4869927 C15.8146489,24.4869927 13,21.6774194 13,18.2434964 C13,14.8095734 15.8146489,12 19.2547753,12 C22.6949018,12 25.5095507,14.8095734 25.5095507,18.2434964 C25.5095507,19.6170656 25.0404425,20.8969823 24.2898695,21.9271592 L27.8863653,25.5171696 Z M19.2547753,22.6139438 C21.6628638,22.6139438 23.6331181,20.6472425 23.6331181,18.2434964 C23.6331181,15.8397503 21.6628638,13.8730489 19.2547753,13.8730489 C16.8466868,13.8730489 14.8764326,15.8397503 14.8764326,18.2434964 C14.8764326,20.6472425 16.8466868,22.6139438 19.2547753,22.6139438 Z" id="path-1"></path>
    </defs>
    <g id="Page-2" stroke="none" stroke-width="1" fill="none" fill-rule="evenodd">
        <g id="操作按钮" transform="translate(-172.000000, -916.000000)">
            <g id="icon/dwindle/deepcolor/pressed" transform="translate(172.000000, 916.000000)">
                <g id="icon/dwindle/normal-copy-2">
                    <rect id="Rectangle-3" fill="#323A4D" x="0" y="0" width="40" height="40"></rect>
                    <mask id="mask-2" fill="white">
                        <use xlink:href="#path-1"></use>
                    </mask>
                    <use id="Combined-Shape" fill="#A3A9B0" opacity="0.3" xlink:href="#path-1"></use>
                </g>
            </g>
        </g>
    </g>
</svg>
