<?xml version="1.0" encoding="UTF-8"?>
<svg width="15px" height="15px" viewBox="0 0 15 15" version="1.1" xmlns="http://www.w3.org/2000/svg" xmlns:xlink="http://www.w3.org/1999/xlink">
    <!-- Generator: Sketch 51.1 (57501) - http://www.bohemiancoding.com/sketch -->
    <title>Group 6 Copy 4</title>
    <desc>Created with Sketch.</desc>
    <defs></defs>
    <g id="UI-kit" stroke="none" stroke-width="1" fill="none" fill-rule="evenodd">
        <g id="icon" transform="translate(-1543.000000, -699.000000)" fill="#D24545">
            <path d="M1550.50006,710.107441 C1550.12065,710.107441 1549.81194,709.798811 1549.81194,709.4194 L1549.81194,707.188059 L1547.5806,707.188059 C1547.20123,707.188059 1546.8926,706.879429 1546.8926,706.500057 C1546.8926,706.120609 1547.20123,705.811941 1547.5806,705.811941 L1549.81194,705.811941 L1549.81194,703.5806 C1549.81194,703.201227 1550.12065,702.892559 1550.50006,702.892559 C1550.87943,702.892559 1551.1881,703.201227 1551.1881,703.5806 L1551.1881,705.811941 L1553.4194,705.811941 C1553.79877,705.811941 1554.10744,706.120609 1554.10744,706.500057 C1554.10744,706.879429 1553.79877,707.188059 1553.4194,707.188059 L1551.1881,707.188059 L1551.1881,709.4194 C1551.1881,709.798811 1550.87943,710.107441 1550.50006,710.107441 M1550.50006,700.376043 C1548.86461,700.376043 1547.32678,701.013145 1546.16996,702.169965 C1545.01314,703.326785 1544.37604,704.864574 1544.37604,706.500057 C1544.37604,708.135464 1545.01314,709.673215 1546.16996,710.830073 C1547.32678,711.986855 1548.86461,712.623957 1550.50006,712.623957 C1552.13546,712.623957 1553.67325,711.986855 1554.83007,710.830073 C1555.98689,709.673215 1556.624,708.135464 1556.624,706.500057 C1556.624,704.864574 1555.98689,703.326823 1554.83007,702.169965 C1553.67325,701.013145 1552.13546,700.376043 1550.50006,700.376043 M1550.50006,714 C1549.4875,714 1548.50535,713.801761 1547.5809,713.410718 C1546.68782,713.03298 1545.8857,712.492127 1545.19679,711.803213 C1544.50791,711.114298 1543.96706,710.312218 1543.58932,709.419172 C1543.19828,708.494728 1543,707.512579 1543,706.500057 C1543,705.487497 1543.19828,704.505348 1543.58932,703.580904 C1543.96706,702.68782 1544.50791,701.885702 1545.19679,701.196825 C1545.8857,700.507911 1546.68782,699.967058 1547.5809,699.58932 C1548.50535,699.198277 1549.4875,699 1550.50006,699 C1551.51258,699 1552.49473,699.198277 1553.41917,699.58932 C1554.31222,699.967058 1555.11434,700.507911 1555.80321,701.196825 C1556.49213,701.885702 1557.03294,702.68782 1557.41072,703.580904 C1557.80176,704.505348 1558,705.487497 1558,706.500057 C1558,707.512579 1557.80176,708.494728 1557.41072,709.419172 C1557.03294,710.312218 1556.49213,711.114298 1555.80321,711.803213 C1555.11434,712.492127 1554.31222,713.03298 1553.41917,713.410718 C1552.49473,713.801761 1551.51258,714 1550.50006,714" id="Fill-1-Copy-3"></path>
        </g>
    </g>
</svg>
