<?xml version="1.0" encoding="UTF-8"?>
<svg width="12px" height="12px" viewBox="0 0 12 12" version="1.1" xmlns="http://www.w3.org/2000/svg" xmlns:xlink="http://www.w3.org/1999/xlink">
    <!-- Generator: Sketch 51.1 (57501) - http://www.bohemiancoding.com/sketch -->
    <title>Fill 1 Copy 10</title>
    <desc>Created with Sketch.</desc>
    <defs></defs>
    <g id="UI-kit" stroke="none" stroke-width="1" fill="none" fill-rule="evenodd">
        <g id="icon" transform="translate(-326.000000, -410.000000)" fill="#5B5B5B">
            <path d="M336.913441,418.103711 L336.913441,416.941456 C336.913441,416.663738 336.682485,416.43777 336.398567,416.43777 L332.942609,416.43777 L332.942609,415.768184 C334.073935,415.527685 334.919693,414.564643 334.919693,413.413036 C334.919693,412.080341 333.787075,411 332.389953,411 C330.992803,411 329.860185,412.080341 329.860185,413.413036 C329.860185,414.586544 330.738446,415.564223 331.902137,415.781089 L331.902137,416.435541 L328.5309,416.435541 C328.245718,416.435541 328.013689,416.661482 328.013689,416.939174 L328.013689,418.127554 C327.421848,418.33697 327,418.880262 327,419.517666 C327,420.336341 327.695784,421 328.554026,421 C329.412296,421 330.108052,420.336341 330.108052,419.517666 C330.108052,418.866387 329.667533,418.313626 329.055344,418.114649 L329.055344,417.443961 L331.902137,417.443961 L331.902137,418.149193 C331.340681,418.372643 330.945974,418.901115 330.945974,419.517666 C330.945974,420.336341 331.641758,421 332.5,421 C333.35827,421 334.054026,420.336341 334.054026,419.517666 C334.054026,418.845744 333.585157,418.278557 332.942609,418.096682 L332.942609,417.443961 L335.875334,417.443961 L335.875334,418.138964 C335.299524,418.355987 334.891948,418.891252 334.891948,419.517666 C334.891948,420.336341 335.587731,421 336.445974,421 C337.304244,421 338,420.336341 338,419.517666 C338,418.8544 337.543257,418.292984 336.913441,418.103711" id="Fill-1"></path>
        </g>
    </g>
</svg>