<?xml version="1.0" encoding="UTF-8"?>
<svg width="11px" height="13px" viewBox="0 0 11 13" version="1.1" xmlns="http://www.w3.org/2000/svg" xmlns:xlink="http://www.w3.org/1999/xlink">
    <!-- Generator: Sketch 53 (72520) - https://sketchapp.com -->
    <title>zhanghao (1) copy 6</title>
    <desc>Created with Sketch.</desc>
    <defs>
        <polygon id="path-1" points="0 0 11 0 11 12 0 12"></polygon>
    </defs>
    <g id="UI规范" stroke="none" stroke-width="1" fill="none" fill-rule="evenodd">
        <g id="icon" transform="translate(-42.000000, -858.000000)">
            <g id="Group-3" transform="translate(42.000000, 858.000000)">
                <mask id="mask-2" fill="white">
                    <use xlink:href="#path-1"></use>
                </mask>
                <g id="Clip-2"></g>
                <path d="M6.56945627,11.9999889 C6.45314424,11.9999889 6.33858503,11.9677728 6.23742236,11.9087529 C6.02182569,11.7742183 5.8901139,11.5354325 5.88823588,11.2760283 L5.88823588,6.63136596 C5.89211712,6.36861129 6.03334421,6.12840791 6.25457495,5.99941457 L10.0172502,4.17482244 C10.2156943,4.0658031 10.4560808,4.07198859 10.6488909,4.19002845 C10.8644876,4.32237227 10.9979522,4.56180247 10.9998302,4.82197984 L10.9998302,9.44460634 C11.0055894,9.71844336 10.8644876,9.97230638 10.6334911,10.1046502 L6.87469708,11.9203507 C6.7812969,11.9731851 6.67625299,12.0006332 6.56945627,11.9999889 M4.43051691,11.9999889 C4.32559821,11.9993446 4.21867628,11.9717676 4.12527609,11.9203507 L0.381631423,10.1046502 C0.145000928,9.97643004 -0.00186022066,9.7219227 1.7799144e-05,9.44460634 L1.7799144e-05,4.81914483 C0.00202102027,4.55909631 0.135610829,4.31966612 0.351207502,4.1873223 C0.551529614,4.0697979 0.797675409,4.0697979 0.996119502,4.1873223 L4.73200169,5.99941457 C4.95899169,6.12570175 5.102222,6.36577627 5.1117373,6.63136596 L5.1117373,11.2644305 C5.10973407,11.5222883 4.97626947,11.7618474 4.76442883,11.8956087 C4.66326617,11.9595255 4.54883216,11.9950921 4.43051691,11.9999889 M5.5009882,5.45663739 C5.38642899,5.45328691 5.27387301,5.42300376 5.17271034,5.3681075 L1.02854664,3.35344027 C0.780397627,3.23965294 0.620265139,2.98372809 0.620265139,2.70164375 C0.620265139,2.41968827 0.780397627,2.16363456 1.02854664,2.04907404 L4.96863219,0.122936711 C5.30442213,-0.0409789035 5.69555105,-0.0409789035 6.03134099,0.122936711 L9.96954852,2.04907404 C10.2195756,2.16363456 10.3798332,2.41968827 10.3798332,2.70164375 C10.3798332,2.98372809 10.2195756,3.23965294 9.96954852,3.35344027 L5.82726284,5.3681075 C5.72610017,5.42300376 5.61542221,5.45251373 5.5009882,5.45663739" id="Fill-1" fill="#5B5B5B" mask="url(#mask-2)"></path>
            </g>
        </g>
    </g>
</svg>
