<?xml version="1.0" encoding="UTF-8"?>
<svg width="16px" height="16px" viewBox="0 0 16 16" version="1.1" xmlns="http://www.w3.org/2000/svg" xmlns:xlink="http://www.w3.org/1999/xlink">
    <!-- Generator: Sketch 53 (72520) - https://sketchapp.com -->
    <title>qiye copy 4</title>
    <desc>Created with Sketch.</desc>
    <g id="UI规范" stroke="none" stroke-width="1" fill="none" fill-rule="evenodd">
        <g id="icon" transform="translate(-107.000000, -953.000000)" fill="#fff">
            <path d="M122.209377,966.407022 L121.713256,966.407022 L121.713256,959.264866 C121.713256,958.832803 121.359418,958.481215 120.921942,958.481215 L117.380533,958.481215 L117.380533,953.782783 C117.380533,953.350029 117.026584,953 116.58913,953 L108.760927,953 C108.324231,953 107.970281,953.350029 107.970281,953.782783 L107.970281,966.407022 L107.790623,966.407022 C107.353949,966.407022 107,966.757831 107,967.190606 L107,968.216416 C107,968.648478 107.353949,969 107.790623,969 L122.209377,969 C122.646051,969 123,968.648478 123,968.216416 L123,967.190606 C123,966.757831 122.646051,966.407022 122.209377,966.407022 Z M115.113239,963.546092 C115.113239,963.978957 114.759379,964.329766 114.322616,964.329766 L111.028132,964.329766 C110.590656,964.329766 110.236707,963.978957 110.236707,963.546092 L110.236707,963.310928 C110.236707,962.878932 110.590656,962.528123 111.028132,962.528123 L114.322616,962.528123 C114.759379,962.528123 115.113239,962.878932 115.113239,963.310928 L115.113239,963.546092 Z M115.113239,960.126586 C115.113239,960.55934 114.759379,960.909369 114.322616,960.909369 L111.028132,960.909369 C110.590656,960.909369 110.236707,960.55934 110.236707,960.126586 L110.236707,959.8914 C110.236707,959.459337 110.590656,959.107815 111.028132,959.107815 L114.322616,959.107815 C114.759379,959.107815 115.113239,959.459337 115.113239,959.8914 L115.113239,960.126586 Z M115.113239,956.445343 C115.113239,956.878119 114.759379,957.228148 114.322616,957.228148 L111.028132,957.228148 C110.590656,957.228148 110.236707,956.878119 110.236707,956.445343 L110.236707,956.210959 C110.236707,955.778094 110.590656,955.427374 111.028132,955.427374 L114.322616,955.427374 C114.759379,955.427374 115.113239,955.778094 115.113239,956.210959 L115.113239,956.445343 Z M120.157847,964.94298 L118.049252,964.94298 C117.685146,964.94298 117.389843,964.650817 117.389843,964.290609 C117.389843,963.92971 117.685146,963.637548 118.049252,963.637548 L120.157847,963.637548 C120.521887,963.637548 120.816499,963.92971 120.816499,964.290609 C120.81719,964.650817 120.521887,964.94298 120.157847,964.94298 Z M120.157847,962.306256 L118.049252,962.306256 C117.685146,962.306256 117.389843,962.014094 117.389843,961.653106 C117.389843,961.292987 117.685146,961.000824 118.049252,961.000824 L120.157847,961.000824 C120.521887,961.000824 120.816499,961.292987 120.816499,961.653106 C120.81719,962.014005 120.521887,962.306256 120.157847,962.306256 Z" id="qiye-copy-4"></path>
        </g>
    </g>
</svg>
