<?xml version="1.0" encoding="UTF-8"?>
<svg width="11px" height="13px" viewBox="0 0 11 13" version="1.1" xmlns="http://www.w3.org/2000/svg" xmlns:xlink="http://www.w3.org/1999/xlink">
    <!-- Generator: Sketch 53 (72520) - https://sketchapp.com -->
    <title>zhanghao (1) copy 8</title>
    <desc>Created with Sketch.</desc>
    <defs>
        <polygon id="path-1" points="0 0 9 0 9 12 0 12"></polygon>
    </defs>
    <g id="UI规范" stroke="none" stroke-width="1" fill="none" fill-rule="evenodd">
        <g id="icon" transform="translate(-42.000000, -903.000000)">
            <g id="Group-3" transform="translate(43.000000, 904.000000)">
                <mask id="mask-2" fill="white">
                    <use xlink:href="#path-1"></use>
                </mask>
                <g id="Clip-2"></g>
                <path d="M7.48801266,5.59064875 C7.48801266,5.36882996 7.41603,5.17911899 7.27200609,5.02131281 C7.12802613,4.86355349 6.95202458,4.78461136 6.74403074,4.78461136 L2.24401609,4.78461136 C2.03602225,4.78461136 1.8600207,4.86355349 1.7159968,5.02131281 C1.57201684,5.17911899 1.49997559,5.36882996 1.49997559,5.59064875 C1.49997559,5.81238946 1.57201684,5.99997658 1.7159968,6.15351941 C1.8600207,6.30706224 2.03602225,6.38380242 2.24401609,6.38380242 L6.74403074,6.38380242 C6.95202458,6.38380242 7.12802613,6.30706224 7.27200609,6.15351941 C7.41603,5.99997658 7.48801266,5.81238946 7.48801266,5.59064875 L7.48801266,5.59064875 Z M6.74403074,9.58209083 C6.95202458,9.58209083 7.12802613,9.50316432 7.27200609,9.345405 C7.41603,9.18759882 7.48801266,8.99787223 7.48801266,8.77613152 C7.48801266,8.55439081 7.41603,8.36674124 7.27200609,8.21319841 C7.12802613,8.05971804 6.95202458,7.98291539 6.74403074,7.98291539 L2.24401609,7.98291539 C2.03602225,7.98291539 1.8600207,8.05971804 1.7159968,8.21319841 C1.57201684,8.36674124 1.49997559,8.55439081 1.49997559,8.77613152 C1.49997559,8.99787223 1.57201684,9.18759882 1.7159968,9.345405 C1.8600207,9.50316432 2.03602225,9.58209083 2.24401609,9.58209083 L6.74403074,9.58209083 Z M5.98802242,1.59912859 C5.98802242,1.76975603 6.01200199,1.94672382 6.06000508,2.13009444 C6.10802281,2.31340259 6.18400451,2.48403003 6.28803805,2.64177374 C6.39199835,2.79959553 6.52401049,2.92965093 6.68400125,3.03201802 C6.8440506,3.13432265 7.03201996,3.18549839 7.24802652,3.18549839 L9,3.18549839 L9,10.4008089 C9,10.6481766 8.95400376,10.8699173 8.86204057,11.0661092 C8.77003343,11.262223 8.64804085,11.428587 8.49600422,11.5650453 C8.34402618,11.7015035 8.17602271,11.8080715 7.99200844,11.8848273 C7.80803811,11.9616299 7.62802288,12 7.45202133,12 L1.54799332,12 C1.39601529,12 1.23001865,11.9530876 1.05000342,11.8592628 C0.869988184,11.765438 0.701984707,11.6417855 0.545992988,11.4882426 C0.390015918,11.3347623 0.260010612,11.1599339 0.15597707,10.9637421 C0.0520167709,10.7675658 0,10.5628941 0,10.3496957 L0,1.65030433 C0,1.47119705 0.0379981706,1.28570257 0.113979863,1.0938365 C0.189976204,0.90192358 0.293995098,0.724955785 0.426007246,0.562870651 C0.558019395,0.400847984 0.707990586,0.26652924 0.875994062,0.159898804 C1.04399754,0.053315218 1.21999909,0 1.40402801,0 L5.98802242,0 L5.98802242,1.59912859 Z M8.04001152,0.857150665 C8.25601809,1.07034907 8.42803525,1.24731687 8.55603371,1.38805405 C8.68403217,1.52879123 8.78205984,1.64816485 8.85002881,1.7462686 C8.91801243,1.84435673 8.96000964,1.92749974 8.97603508,1.99576008 C8.99204587,2.06395796 9,2.12369162 9,2.17486736 L9,2.37952346 L7.22404695,2.37952346 C7.14399298,2.37952346 7.07401717,2.34757181 7.01404627,2.28357481 C6.95403143,2.21964027 6.90400685,2.1449771 6.86401648,2.05969462 C6.82402612,1.97441213 6.79404067,1.88699017 6.77401619,1.79744434 C6.75403566,1.70789851 6.74403074,1.63756115 6.74403074,1.58636979 L6.74403074,0 L6.78002207,0 C6.8440506,0 6.91002738,0.0106817836 6.97799635,0.0319672675 C7.04603856,0.053315218 7.1240271,0.0938247891 7.2120352,0.153542831 C7.30004329,0.213214022 7.41000947,0.298496508 7.54202162,0.409390287 C7.67403377,0.520237217 7.8400304,0.669501087 8.04001152,0.857150665 L8.04001152,0.857150665 Z" id="Fill-1" fill="#B0B5C4" mask="url(#mask-2)"></path>
            </g>
        </g>
    </g>
</svg>
