<?xml version="1.0" encoding="UTF-8"?>
<svg width="13px" height="17px" viewBox="0 0 13 17" version="1.1" xmlns="http://www.w3.org/2000/svg" xmlns:xlink="http://www.w3.org/1999/xlink">
    <!-- Generator: Sketch 53 (72520) - https://sketchapp.com -->
    <title>xiazai (1)</title>
    <desc>Created with Sketch.</desc>
    <g id="UI规范" stroke="none" stroke-width="1" fill="none" fill-rule="evenodd">
        <g id="icon" transform="translate(-911.000000, -407.000000)" fill="#C3CACF">
            <g id="xiazai-(1)" transform="translate(911.000000, 407.000000)">
                <path d="M10.4942329,15.7306106 C10.495163,15.4694426 10.3941913,15.2181381 10.2127969,15.0301464 C10.0342578,14.845183 9.78820956,14.7405774 9.53108643,14.7404043 L3.46884683,14.7404043 C3.20994999,14.7439517 2.96297162,14.8503311 2.78259392,15.0360516 C2.60210806,15.221772 2.50291006,15.4717138 2.50680357,15.7306106 C2.50680357,16.2767837 2.93729608,16.7197787 3.46884683,16.7197787 L9.53108643,16.7197787 C9.78652237,16.7197787 10.0314675,16.6166223 10.2127969,16.4310749 C10.3942778,16.2431481 10.4952495,15.9918652 10.4942329,15.7306106 Z M10.5745041,5.90591514 C9.98346913,5.90591514 9.50404816,5.40352246 9.50404816,4.79583195 L9.50404816,1.11109983 C9.50666547,0.818329451 9.39438094,0.536114809 9.19133435,0.325216306 C8.99244084,0.117865225 8.71773202,0.00049750416 8.43036929,0 L4.57058061,0 C3.97751239,0 3.49597162,0.503409318 3.49597162,1.11109983 L3.49597162,4.79472879 C3.49597162,5.40765391 3.00608144,5.9048985 2.42551572,5.9048985 L0.570084767,5.9048985 C-0.0198470135,5.9048985 -0.180389443,6.26552413 0.222999908,6.71892346 L5.77765548,12.9760982 C5.95604317,13.1908686 6.22075864,13.3150715 6.50000989,13.3150715 C6.77917462,13.3150715 7.04391172,13.1908686 7.2223643,12.9760982 L12.7759383,6.71892346 C13.1751746,6.2696772 13.0093976,5.90591514 12.4288319,5.90591514 L10.5734874,5.90591514 L10.5745041,5.90591514 Z" id="Fill-1"></path>
            </g>
        </g>
    </g>
</svg>