<?xml version="1.0" encoding="UTF-8"?>
<svg width="18px" height="17px" viewBox="0 0 18 17" version="1.1" xmlns="http://www.w3.org/2000/svg" xmlns:xlink="http://www.w3.org/1999/xlink">
    <!-- Generator: Sketch 53 (72520) - https://sketchapp.com -->
    <title>Group 3</title>
    <desc>Created with Sketch.</desc>
    <defs>
        <polygon id="path-1" points="0 4.45026178e-06 17.9563242 4.45026178e-06 17.9563242 16.966623 0 16.966623"></polygon>
    </defs>
    <g id="UI规范" stroke="none" stroke-width="1" fill="none" fill-rule="evenodd">
        <g id="icon" transform="translate(-996.000000, -408.000000)">
            <g id="Group-3" transform="translate(996.000000, 408.000000)">
                <mask id="mask-2" fill="white">
                    <use xlink:href="#path-1"></use>
                </mask>
                <g id="Clip-2"></g>
                <path d="M16.1826419,12.0526039 L16.1826419,10.0806039 C16.1826419,9.60945471 15.8056294,9.22606466 15.3421631,9.22606466 L9.70066683,9.22606466 L9.70066683,8.09000183 C11.5474399,7.68195733 12.9280534,6.04799921 12.9280534,4.09411178 C12.9280534,1.83297827 11.0792155,4.45026178e-06 8.79851222,4.45026178e-06 C6.51780898,4.45026178e-06 4.66892618,1.83297827 4.66892618,4.09411178 C4.66892618,6.0851589 6.10259701,7.74399398 8.00220299,8.11189712 L8.00220299,9.22223743 L2.49900599,9.22223743 C2.03347481,9.22223743 1.65471172,9.60562749 1.65471172,10.0767767 L1.65471172,12.0930568 C0.68859202,12.4483657 -3.14214464e-05,13.3701484 -3.14214464e-05,14.4516065 C-3.14214464e-05,15.8406223 1.13576409,16.9666275 2.53675661,16.9666275 C3.93779401,16.9666275 5.07354464,15.8406223 5.07354464,14.4516065 C5.07354464,13.3466065 4.35444239,12.4087584 3.35510574,12.0711615 L3.35510574,10.9332296 L8.00220299,10.9332296 L8.00220299,12.1297715 C7.08568429,12.5088893 6.44136509,13.405528 6.44136509,14.4516065 C6.44136509,15.8406223 7.5771606,16.9666275 8.97815312,16.9666275 C10.3791905,16.9666275 11.5149411,15.8406223 11.5149411,14.4516065 C11.5149411,13.311583 10.7496045,12.3492584 9.70066683,12.0406772 L9.70066683,10.9332296 L14.4880384,10.9332296 L14.4880384,12.1124154 C13.5480883,12.4806301 12.8827616,13.388795 12.8827616,14.4516065 C12.8827616,15.8406223 14.0185571,16.9666275 15.4195496,16.9666275 C16.820587,16.9666275 17.9563377,15.8406223 17.9563377,14.4516065 C17.9563377,13.3262688 17.2107516,12.3737348 16.1826419,12.0526039" id="Fill-1" fill="#C3CACF" mask="url(#mask-2)"></path>
            </g>
        </g>
    </g>
</svg>
