<?xml version="1.0" encoding="UTF-8"?>
<svg width="22px" height="22px" viewBox="0 0 22 22" version="1.1" xmlns="http://www.w3.org/2000/svg" xmlns:xlink="http://www.w3.org/1999/xlink">
    <!-- Generator: Sketch 53 (72520) - https://sketchapp.com -->
    <title>Group 10</title>
    <desc>Created with Sketch.</desc>
    <defs>
        <polygon id="path-1" points="0 0.0709856643 10.7319019 0.0709856643 10.7319019 8.94230769 0 8.94230769"></polygon>
    </defs>
    <g id="UI规范" stroke="none" stroke-width="1" fill="none" fill-rule="evenodd">
        <g id="icon" transform="translate(-563.000000, -404.000000)">
            <g id="Group-10" transform="translate(563.000000, 404.000000)">
                <path d="M15.975376,12.041364 C18.0524564,12.041364 19.74229,13.6031134 19.74229,15.5227576 C19.74229,17.4748703 18.0875877,19.0042995 15.975376,19.0042995 C13.8982956,19.0042995 12.208462,17.4424018 12.208462,15.5227576 C12.208462,13.6031134 13.8982956,12.041364 15.975376,12.041364 M16.024624,21 C18.9860838,21 21.4499298,19.0145293 21.9185081,16.4130467 C21.9712853,16.1199407 22,15.8191253 22,15.5122313 C21.9444957,12.4726464 19.2421095,10 15.975376,10 C15.847684,10 15.7207941,10.0059303 15.594225,10.0133432 C15.5510728,10.0160119 15.5079206,10.0188288 15.4650892,10.022387 C15.3633848,10.0305411 15.2621616,10.0412157 15.1614197,10.0541142 C15.1179467,10.059748 15.0744736,10.06553 15.0313214,10.0719051 C14.9252857,10.0877687 14.8197313,10.1061527 14.7149789,10.1275019 C14.6764788,10.1352113 14.6382996,10.1433655 14.6001203,10.1518162 C13.9074393,10.3052632 13.2500501,10.5725723 12.6616403,10.9454411 L12.6549027,10.9347665 C11.996551,11.3417346 11.4314016,11.8656783 10.9933026,12.4738325 C10.9286545,12.5636768 10.8673752,12.6553002 10.8088229,12.7478132 C10.7932625,12.7727205 10.7773812,12.7974796 10.7621416,12.8226835 C10.6982956,12.9273536 10.6376579,13.0332098 10.5816723,13.1409933 C10.5747744,13.1543365 10.5686786,13.1679763 10.5617806,13.1813195 C10.5114097,13.2805041 10.4645679,13.3811712 10.4209344,13.4828762 C10.4108282,13.5061527 10.4005615,13.5292809 10.390776,13.552854 C10.3436134,13.6671609 10.2996591,13.7825056 10.2608382,13.8994811 C10.2576298,13.9094144 10.2549027,13.9193477 10.2516944,13.9292809 C10.2154401,14.0406227 10.1835171,14.1532987 10.1551233,14.2670126 C10.1503108,14.2855448 10.1454983,14.3042254 10.1410066,14.3229059 C10.082294,14.5693106 10.0420293,14.8203113 10.0202126,15.0748703 C10.018448,15.0957746 10.016523,15.1163825 10.0150792,15.1371386 C10.005775,15.2631579 10.0001604,15.3900667 10,15.5175686 C10,15.539066 10.0014438,15.5601186 10.0017646,15.5814678 C10.0041708,15.7361008 10.014598,15.8883617 10.0312813,16.0376575 L10.0279126,16.0383988 C10.1005815,16.7404003 10.317305,17.4037064 10.6496892,18.004003 L10.7018247,17.9933284 C11.7078003,19.8346924 13.7439743,21 16.024624,21" id="Fill-1" fill="#4FA2F1"></path>
                <path d="M16.0955,10 C16.0635,10.0025 16.032,10.005 16,10.0075 C16.032,10.005 16.0635,10.002 16.0955,10" id="Fill-3" fill="#5D5C64"></path>
                <g id="Group-7" transform="translate(0.000000, 13.000000)">
                    <mask id="mask-2" fill="white">
                        <use xlink:href="#path-1"></use>
                    </mask>
                    <g id="Clip-6"></g>
                    <path d="M4.08881058,6.70373916 C2.98473365,6.70373916 2.05205096,5.68626713 2.05205096,4.48181958 C2.05205096,3.27737203 2.98473365,2.25973741 4.08881058,2.25973741 C5.19303654,2.25973741 6.12571923,3.27737203 6.12571923,4.48181958 C6.12571923,5.68626713 5.19303654,6.70373916 4.08881058,6.70373916 M10.1522913,2.45955734 L7.91984423,3.00048566 C7.35305096,1.27104336 5.8245125,0.0709856643 4.08881058,0.0709856643 C1.79600288,0.0709856643 -5.96153846e-05,2.03032657 -5.96153846e-05,4.53173392 C-5.96153846e-05,6.96371643 1.83430577,8.94240524 4.08881058,8.94240524 C6.07623846,8.94240524 7.77155096,7.35148741 8.12164231,5.24321643 L10.7319019,4.61449091 C10.4226471,3.95649965 10.2204019,3.22940874 10.1522913,2.45955734" id="Fill-5" fill="#98C5F0" mask="url(#mask-2)"></path>
                </g>
                <path d="M8.27021723,2.11001137 C9.45621765,2.11001137 10.4210263,3.07076538 10.4210263,4.25159321 C10.4210263,5.43242104 9.45621765,6.3930218 8.27021723,6.3930218 C7.08406288,6.3930218 6.11925423,5.43242104 6.11925423,4.25159321 C6.11925423,3.07076538 7.08406288,2.11001137 8.27021723,2.11001137 M16.3822754,3.74799811 C16.5502088,3.57083562 16.7878706,3.4733656 17.0518538,3.4733656 C17.5267158,3.4733656 17.9278472,3.87274747 17.9278472,4.34553837 C17.9278472,4.81848252 17.5267158,5.21771114 17.0518538,5.21771114 C16.5769919,5.21771114 16.1757066,4.81848252 16.1757066,4.34553837 L16.1757066,4.32852709 L16.1747831,4.31105605 C16.162469,4.10247634 16.2361996,3.90232564 16.3822754,3.74799811 M8.27021723,8.50318642 C8.67504281,8.50318642 9.06047371,8.45215259 9.42143036,8.35115771 L11.5269852,12 C11.9459719,11.3880538 12.4825583,10.8614705 13.1041118,10.4507478 L11.2823966,7.28557745 C11.8754738,6.70244314 12.2709099,6.02107253 12.4480788,5.27717398 L14.184365,5.33786286 C14.5890366,6.51516583 15.7073096,7.32787576 17.0045985,7.32787576 C18.6562253,7.32787576 20,5.98996181 20,4.34553837 C20,2.70111493 18.6562253,1.36320098 17.0045985,1.36320098 C15.7704193,1.36320098 14.6676928,2.12349778 14.2174591,3.22846452 L12.3940508,3.16593658 C11.9245762,1.30450441 10.2626364,0 8.27021723,0 C5.91561003,0 4,1.90725534 4,4.25159321 C4,6.59593109 5.91561003,8.50318642 8.27021723,8.50318642" id="Fill-8" fill="#98C5F0"></path>
            </g>
        </g>
    </g>
</svg>
