<?xml version="1.0" encoding="UTF-8"?>
<svg width="11px" height="13px" viewBox="0 0 11 13" version="1.1" xmlns="http://www.w3.org/2000/svg" xmlns:xlink="http://www.w3.org/1999/xlink">
    <!-- Generator: Sketch 53 (72520) - https://sketchapp.com -->
    <title>zhanghao (1) copy 7</title>
    <desc>Created with Sketch.</desc>
    <defs>
        <polygon id="path-1" points="0 0 11 0 11 13 0 13"></polygon>
    </defs>
    <g id="UI规范" stroke="none" stroke-width="1" fill="none" fill-rule="evenodd">
        <g id="icon" transform="translate(-42.000000, -835.000000)">
            <g id="dizhi" transform="translate(42.000000, 835.000000)">
                <mask id="mask-2" fill="white">
                    <use xlink:href="#path-1"></use>
                </mask>
                <g id="Clip-2"></g>
                <path d="M10.2514602,8.22960859 C9.38356987,9.58821612 7.83979616,11.2786159 6.69756246,12.4573194 C6.35836091,12.8072967 5.92853019,13 5.48697813,13 C5.05234724,13 4.62643959,12.8126338 4.28856167,12.4728441 C2.98211742,11.1589773 1.2776735,9.30116465 0.563101661,7.88672039 C0.19101654,7.13834258 -0.00191530415,6.31114121 1.43332432e-05,5.47253565 C1.43332432e-05,4.73410204 0.145470719,4.01735749 0.432460426,3.34184972 C0.709993314,2.68947477 1.11028942,2.09869544 1.61083098,1.60271853 C2.11422712,1.10116119 2.70783781,0.702955349 3.35925787,0.429725181 C4.03813939,0.144247268 4.76586785,-0.00175234666 5.50043775,1.58708927e-05 C6.24248698,1.58708927e-05 6.9627361,0.144441934 7.64125083,0.429725181 C8.29247953,0.703020237 8.88596263,1.10122608 9.38924715,1.60271853 C9.88977276,2.09882522 10.2901486,2.68979922 10.5676017,3.34228772 C10.855038,4.01735749 11,4.73410204 11,5.47297365 C11,6.2893386 10.9102958,7.18726868 10.2518907,8.22960859 L10.2514602,8.22960859 Z M6.2960703,7.10711489 C6.53813614,7.00559649 6.7587208,6.8575691 6.94579994,6.67120871 C7.13305451,6.48515653 7.28069569,6.26722777 7.383413,6.02446286 C7.49056369,5.77334352 7.54457759,5.50661845 7.54457759,5.23243117 C7.54488059,4.95994722 7.49000553,4.69038327 7.383413,4.44039948 C7.28044053,4.19782923 7.13174682,3.97813226 6.94579994,3.79366986 C6.7587208,3.60729324 6.53813614,3.45926585 6.2960703,3.35776367 C6.04365459,3.25162195 5.77317046,3.19724521 5.50000717,3.19787787 C5.22435607,3.19787787 4.95655111,3.25149218 4.70356129,3.35776367 C4.46149546,3.45933074 4.24091079,3.60729324 4.05383165,3.79366986 C3.86657709,3.98016003 3.71938243,4.19763457 3.61615481,4.44039948 C3.50962606,4.69038327 3.454751,4.95994722 3.45505401,5.23243117 C3.45505401,5.50707267 3.50949849,5.77334352 3.61615481,6.02491708 C3.71919106,6.26748733 3.86788478,6.4871843 4.05383165,6.6716467 C4.44105087,7.05426303 4.95978843,7.26800646 5.49956064,7.26748735 C5.77565826,7.26748735 6.04346322,7.21343505 6.29650088,7.10711489 L6.2960703,7.10711489 Z" id="Fill-1" fill="#5B5B5B" mask="url(#mask-2)"></path>
            </g>
        </g>
    </g>
</svg>
