<?xml version="1.0" encoding="UTF-8"?>
<svg width="22px" height="22px" viewBox="0 0 22 22" version="1.1" xmlns="http://www.w3.org/2000/svg" xmlns:xlink="http://www.w3.org/1999/xlink">
    <!-- Generator: Sketch 53 (72520) - https://sketchapp.com -->
    <title>Group 19</title>
    <desc>Created with Sketch.</desc>
    <defs>
        <polygon id="path-1" points="0 0.0341538462 21.9153228 0.0341538462 21.9153228 2 0 2"></polygon>
    </defs>
    <g id="UI规范" stroke="none" stroke-width="1" fill="none" fill-rule="evenodd">
        <g id="icon" transform="translate(-614.000000, -404.000000)">
            <g id="Group-19" transform="translate(614.000000, 404.000000)">
                <g id="Group-3" transform="translate(0.000000, 20.000000)">
                    <mask id="mask-2" fill="white">
                        <use xlink:href="#path-1"></use>
                    </mask>
                    <g id="Clip-2"></g>
                    <path d="M0.969350345,2 C0.398564138,2 -1.51724138e-05,1.59584615 -1.51724138e-05,1.01707692 C-1.51724138e-05,0.544307692 0.370646897,0.0341538462 0.969350345,0.0341538462 L20.946109,0.0341538462 C21.5167434,0.0341538462 21.9153228,0.438461538 21.9153228,1.01707692 C21.9153228,1.59584615 21.5167434,2 20.946109,2 L0.969350345,2 Z" id="Fill-1" fill="#98C5F0" mask="url(#mask-2)"></path>
                </g>
                <path d="M5.98013347,11 C5.40300683,11 5,10.588668 5,9.99984348 C5,9.41117546 5.40300683,9 5.98013347,9 L10.0198665,9 C10.5968398,9 11,9.41117546 11,9.99984348 C11,10.588668 10.5968398,11 10.0198665,11 L5.98013347,11 Z" id="Fill-4" fill="#98C5F0"></path>
                <path d="M5.98013347,15 C5.40300683,15 5,14.5887924 5,13.9999217 C5,13.4112076 5.40300683,13 5.98013347,13 L10.0198665,13 C10.5968398,13 11,13.4112076 11,13.9999217 C11,14.5887924 10.5968398,15 10.0198665,15 L5.98013347,15 Z" id="Fill-6" fill="#98C5F0"></path>
                <path d="M15.8891724,16 C15.3656059,16 15,15.5887924 15,14.9999217 C15,14.4112076 15.3656059,14 15.8891724,14 L17.1106884,14 C17.634255,14 18,14.4112076 18,14.9999217 C18,15.5887924 17.634255,16 17.1106884,16 L15.8891724,16 Z" id="Fill-8" fill="#98C5F0"></path>
                <path d="M20.2543434,16 L19.7456566,16 C19.3338551,16 19,16.3218772 19,16.7189044 L19,20 L21,20 L21,16.7189044 C21,16.3218772 20.6661449,16 20.2543434,16" id="Fill-10" fill="#98C5F0"></path>
                <path d="M14.0293121,20 L14.0293121,9.62771724 L18.9705291,12.7918189 L18.9705291,13.0299637 C18.9705291,13.4416317 19.3093036,13.7753786 19.7271733,13.7753786 L20.2433558,13.7753786 C20.6612254,13.7753786 21,13.4416317 21,13.0299637 L21,12.6904275 C21,12.1612517 20.7330145,11.5145683 20.1374193,11.2473205 L12,6 L12,20 L14.0293121,20 Z" id="Fill-12" fill="#98C5F0"></path>
                <g id="Group-16" transform="translate(1.000000, 0.000000)" fill="#4FA2F1">
                    <path d="M1.07830357,8.14212308 L1.13974405,8.14212308 C1.668875,8.14212308 2.09772024,7.71581538 2.09772024,7.18996923 L2.09772024,4.75227692 L10.9878631,2.10104615 L10.9878631,19.8802769 L12.9654107,19.8802769 L12.9654107,1.27735385 L12.8703869,1.08827692 C12.5908869,0.406584615 11.9956726,0.000123076923 11.2755655,0.000123076923 C11.1539226,0.000123076923 11.0284107,0.0115076923 10.9024345,0.0344307692 L10.8857202,0.0373538462 L1.29249405,2.87796923 L1.27206548,2.88473846 C0.59389881,3.13766154 0.120327381,3.81135385 0.120327381,4.52335385 L0.120327381,7.18996923 C0.120327381,7.71581538 0.549172619,8.14212308 1.07830357,8.14212308" id="Fill-14"></path>
                </g>
                <path d="M3,20 L3,10.9822123 C3,10.4396947 2.5662858,10 2.03114728,10 L1.96900923,10 C1.43387072,10 1,10.4396947 1,10.9822123 L1,20 L3,20 Z" id="Fill-17" fill="#4FA2F1"></path>
            </g>
        </g>
    </g>
</svg>