<?xml version="1.0" encoding="UTF-8"?>
<svg width="11px" height="13px" viewBox="0 0 11 13" version="1.1" xmlns="http://www.w3.org/2000/svg" xmlns:xlink="http://www.w3.org/1999/xlink">
    <!-- Generator: Sketch 53 (72520) - https://sketchapp.com -->
    <title>zhanghao (1) copy 9</title>
    <desc>Created with Sketch.</desc>
    <g id="UI规范" stroke="none" stroke-width="1" fill="none" fill-rule="evenodd">
        <g id="icon" transform="translate(-42.000000, -925.000000)" fill="#b0b5c4">
            <g id="分组-2" transform="translate(42.000000, 926.000000)">
                <path d="M-1.42108547e-14,2.64 C-1.42108547e-14,4.09800695 2.36392437,5.28 5.28003223,5.28 C8.19607563,5.28 10.56,4.09800695 10.56,2.64 C10.56,1.18199305 8.19607563,-5.32907052e-15 5.28003223,-5.32907052e-15 C2.36392437,-5.32907052e-15 -1.42108547e-14,1.18199305 -1.42108547e-14,2.64 Z" id="Fill-1"></path>
                <path d="M5.28003223,6.29737542 C3.00553023,6.29737542 1.137251,5.67925959 0.324934381,4.82926141 C0.162447855,5.06108244 -1.42108547e-14,5.29291573 -1.42108547e-14,5.60194913 C-1.42108547e-14,6.83827889 2.35571303,7.92 5.28003223,7.92 C8.20433853,7.92 10.56,6.83827889 10.56,5.60194913 C10.56,5.29291573 10.397565,5.06108244 10.2350656,4.752 C9.42276189,5.67925959 7.55446977,6.29737542 5.28003223,6.29737542 Z" id="Fill-3"></path>
                <path d="M5.28003223,8.86010743 C3.00553023,8.86010743 1.137251,8.24194015 0.324934381,7.392 C0.162447855,7.70108364 -1.42108547e-14,7.93290556 -1.42108547e-14,8.24194015 C-1.42108547e-14,9.47823792 2.35571303,10.56 5.28003223,10.56 C8.20433853,10.56 10.56,9.55553642 10.56,8.24194015 C10.56,7.93290556 10.397565,7.70108364 10.2350656,7.392 C9.42276189,8.31925091 7.55446977,8.86010743 5.28003223,8.86010743 Z" id="Fill-4"></path>
            </g>
        </g>
    </g>
</svg>
