<?xml version="1.0" encoding="UTF-8"?>
<svg width="22px" height="22px" viewBox="0 0 22 22" version="1.1" xmlns="http://www.w3.org/2000/svg" xmlns:xlink="http://www.w3.org/1999/xlink">
    <!-- Generator: Sketch 53 (72520) - https://sketchapp.com -->
    <title>Group 6</title>
    <desc>Created with Sketch.</desc>
    <defs>
        <polygon id="path-1" points="0 0.101460674 14.9762656 0.101460674 14.9762656 14 0 14"></polygon>
    </defs>
    <g id="UI规范" stroke="none" stroke-width="1" fill="none" fill-rule="evenodd">
        <g id="icon" transform="translate(-661.000000, -404.000000)">
            <g id="Group-6" transform="translate(661.000000, 404.000000)">
                <g id="Group-3" transform="translate(0.000000, 8.000000)">
                    <mask id="mask-2" fill="white">
                        <use xlink:href="#path-1"></use>
                    </mask>
                    <g id="Clip-2"></g>
                    <path d="M4.99032813,14 C3.66595313,14 2.37985938,13.4720899 1.46173438,12.5515506 C0.427203125,11.514764 -0.099984375,10.122 0.015640625,8.73017978 C0.074078125,7.33552809 0.656578125,6.04878652 1.70048438,5.0028764 L3.43048438,3.26907865 C3.66064063,3.0381573 3.97110938,2.91121348 4.30454688,2.91121348 C4.63798438,2.91121348 4.94845313,3.0381573 5.17876563,3.26907865 C5.40876563,3.49968539 5.53548438,3.81067416 5.53532813,4.14447191 C5.53532813,4.47811236 5.40860938,4.78862921 5.17876563,5.01907865 L3.44876563,6.7527191 C2.85064063,7.35204494 2.50767188,8.11166292 2.50767188,8.83714607 C2.50767188,9.35294382 2.58048438,10.111618 3.21001563,10.7419326 C3.79017188,11.3233258 4.49860938,11.4453933 4.99064063,11.4453933 C5.71251563,11.4453933 6.53204688,11.0950787 7.18282813,10.5083371 L11.5439219,6.13844944 C12.1361094,5.54525843 12.4757969,4.74851685 12.4759531,3.95240449 C12.4761094,3.27631461 12.2298594,2.65732584 11.7828281,2.20885393 C11.5526719,1.97824719 11.4259531,1.66757303 11.4259531,1.33377528 C11.4259531,0.999820225 11.5526719,0.689303371 11.7826719,0.459011236 C12.0128281,0.228404494 12.3232969,0.101460674 12.6567344,0.101460674 C12.9903281,0.101460674 13.3006406,0.228404494 13.5306406,0.459168539 C14.4898594,1.42013483 14.9762656,2.60966292 14.9762656,3.99440449 C14.9762656,5.43467416 14.3622031,6.87573034 13.2918906,7.94791011 L8.93673438,12.3122921 C7.88204688,13.3690562 6.40673438,14 4.99032813,14" id="Fill-1" fill="#4FA2F1" mask="url(#mask-2)"></path>
                </g>
                <path d="M9.32518964,14 C8.99080463,14 8.67959947,13.871971 8.44889731,13.6395224 C7.48755997,12.6715409 7,11.4736461 7,10.0786373 C7,8.62769509 7.61520577,7.17611907 8.68790036,6.09595382 L13.0532301,1.70002829 C14.110106,0.635391319 15.5889179,0 17.0091536,0 C18.3365133,0 19.6259708,0.531763907 20.5467434,1.45918171 C21.5267186,2.4460189 22.0548433,3.82930225 21.9954841,5.25394149 C21.9376911,6.65243619 21.3539661,7.94857111 20.3074271,9.00243337 L19.7096063,9.60470828 L18.5705045,10.8117933 C18.3426215,11.0412314 18.031573,11.1692604 17.6973446,11.1692604 C17.3629596,11.1692604 17.0517544,11.0412314 16.8208956,10.8087828 C16.5469662,10.560172 16.3881529,10.2210854 16.3792255,9.87328391 C16.3709246,9.55748967 16.4854143,9.26356177 16.7015507,9.04600758 L18.4956399,7.23934129 C19.0912681,6.63960161 19.4378695,5.93908664 19.4978552,5.21337785 C19.4984817,4.68082169 19.4254965,3.91676759 18.7943154,3.28137627 C18.212783,2.69573878 17.5026652,2.57293871 17.0094669,2.57293871 C16.208509,2.57293871 15.4055151,2.91899723 14.8061281,3.5223813 L10.4406417,7.91830683 C9.84704953,8.51630355 9.50655632,9.31901986 9.50655632,10.1209439 C9.5063997,10.8016524 9.75323378,11.4253183 10.2013254,11.8767472 C10.4320275,12.108879 10.5590468,12.422138 10.5590468,12.7583725 C10.5588902,13.0944485 10.4320275,13.4073906 10.201482,13.6395224 C9.9706232,13.871971 9.65941804,14 9.32518964,14" id="Fill-4" fill="#98C5F0"></path>
            </g>
        </g>
    </g>
</svg>