<?xml version="1.0" encoding="UTF-8"?>
<svg width="22px" height="22px" viewBox="0 0 22 22" version="1.1" xmlns="http://www.w3.org/2000/svg" xmlns:xlink="http://www.w3.org/1999/xlink">
    <!-- Generator: Sketch 53 (72520) - https://sketchapp.com -->
    <title>Group 9</title>
    <desc>Created with Sketch.</desc>
    <defs>
        <polygon id="path-1" points="0.148938462 0.0538597403 11.942 0.0538597403 11.942 11.9999377 0.148938462 11.9999377"></polygon>
        <polygon id="path-3" points="0.1060875 0.0298928571 8.99744464 0.0298928571 8.99744464 8.92134643 0.1060875 8.92134643"></polygon>
    </defs>
    <g id="UI规范" stroke="none" stroke-width="1" fill="none" fill-rule="evenodd">
        <g id="icon" transform="translate(-516.000000, -404.000000)">
            <g id="Group-9" transform="translate(516.000000, 404.000000)">
                <g id="Group-3" transform="translate(10.000000, 10.000000)">
                    <mask id="mask-2" fill="white">
                        <use xlink:href="#path-1"></use>
                    </mask>
                    <g id="Clip-2"></g>
                    <path d="M2.65186154,8.06752208 C2.30016923,7.4697039 2.0974,6.77198961 2.0974,6.0268987 C2.0974,3.8217039 3.86863077,2.02762597 6.04555385,2.02762597 C6.78093846,2.02762597 7.46970769,2.23302857 8.05986154,2.58928831 L2.65186154,8.06752208 Z M6.04555385,10.0261714 C5.30955385,10.0261714 4.62047692,9.82061299 4.03001538,9.46404156 L9.43863077,3.9854961 C9.79063077,4.58362597 9.99355385,5.2814961 9.99355385,6.0268987 C9.99355385,8.23224935 8.22247692,10.0261714 6.04555385,10.0261714 L6.04555385,10.0261714 Z M10.2767846,1.87302857 C10.2614,1.85417143 10.2435538,1.83765195 10.2270923,1.8201974 C10.2221692,1.81521039 10.2174,1.80991169 10.2124769,1.80476883 C10.1954,1.78747013 10.1783231,1.77017143 10.1600154,1.75411948 C9.09678462,0.703262338 7.64493846,0.0538597403 6.04555385,0.0538597403 C2.79416923,0.0538597403 0.148938462,2.73328831 0.148938462,6.0268987 C0.148938462,7.63302857 0.779092308,9.09188571 1.80063077,10.1664312 C1.82386154,10.1958857 1.84832308,10.2247169 1.87509231,10.2518338 C1.90170769,10.278639 1.92970769,10.3032623 1.95878462,10.3264831 C3.0194,11.3616 4.45970769,11.9999377 6.04555385,11.9999377 C9.29678462,11.9999377 11.9420154,9.32050909 11.9420154,6.0268987 C11.9420154,4.41375584 11.3063231,2.94882078 10.2767846,1.87302857 L10.2767846,1.87302857 Z" id="Fill-1" fill="#4FA2F1" mask="url(#mask-2)"></path>
                </g>
                <g id="Group-6" transform="translate(7.000000, 0.000000)">
                    <mask id="mask-4" fill="white">
                        <use xlink:href="#path-3"></use>
                    </mask>
                    <g id="Clip-5"></g>
                    <path d="M4.55176607,2.065275 C5.88087321,2.065275 6.96215893,3.14656071 6.96215893,4.47550714 C6.96215893,5.80461429 5.88087321,6.88573929 4.55176607,6.88573929 C3.22265893,6.88573929 2.14153393,5.80461429 2.14153393,4.47550714 C2.14153393,3.14656071 3.22265893,2.065275 4.55176607,2.065275 M4.55176607,8.92134643 C7.00314107,8.92134643 8.99744464,6.92704286 8.99744464,4.47550714 C8.99744464,2.02413214 7.00314107,0.0298285714 4.55176607,0.0298285714 C2.10039107,0.0298285714 0.1060875,2.02413214 0.1060875,4.47550714 C0.1060875,6.92704286 2.10039107,8.92134643 4.55176607,8.92134643" id="Fill-4" fill="#98C5F0" mask="url(#mask-4)"></path>
                </g>
                <path d="M10.7779853,11.6232325 C10.9434079,11.4197387 11.0223452,11.1536556 10.9945128,10.8927621 C10.9399485,10.3838704 10.5133407,10 10.0022921,10 C9.9691132,10 9.93561985,10.0015726 9.90149752,10.0050323 C4.24033593,10.5846908 -0.0163065971,15.3134837 4.69612231e-05,21.0042329 C4.69612231e-05,21.553383 0.446624899,22 0.995727068,22 C1.54482924,22 1.99156442,21.553383 1.99156442,21.0037611 C1.97819853,16.3385011 5.46763903,12.4612683 10.107804,11.9850866 C10.3686747,11.9585097 10.6130346,11.826569 10.7779853,11.6232325" id="Fill-7" fill="#98C5F0"></path>
            </g>
        </g>
    </g>
</svg>