<?xml version="1.0" encoding="UTF-8"?>
<svg width="17px" height="10px" viewBox="0 0 17 10" version="1.1" xmlns="http://www.w3.org/2000/svg" xmlns:xlink="http://www.w3.org/1999/xlink">
    <!-- Generator: Sketch 53 (72520) - https://sketchapp.com -->
    <title>yanjing</title>
    <desc>Created with Sketch.</desc>
    <g id="UI规范" stroke="none" stroke-width="1" fill="none" fill-rule="evenodd">
        <g id="icon" transform="translate(-947.000000, -412.000000)" fill="#C3CACF">
            <g id="yanjing" transform="translate(947.000000, 412.000000)">
                <path d="M16.9999998,4.91851765 C16.9999998,6.49027354 13.495398,9.84210503 8.49999988,9.84210503 C3.63219742,9.84310696 0,6.54569989 0,4.91851765 C0,3.29233734 3.64818841,0 8.49999988,0 C13.5336102,0 17.0010589,3.29233734 16.9999998,4.91851765 Z M8.50745542,0.89876455 C6.24477199,0.89876455 4.41164392,2.69931946 4.41164392,4.92054154 C4.41164392,7.14176362 6.24583114,8.94334049 8.50745542,8.94334049 C10.7701388,8.94334049 12.6043468,7.14176362 12.6043468,4.92054154 C12.6043468,2.69931946 10.7701388,0.89876455 8.50745542,0.89876455 Z M8.49999988,2.35359608 C7.05925329,2.35359608 5.89172418,3.50063702 5.89172418,4.91545177 C5.89172418,6.3302064 7.05925329,7.47622538 8.49999988,7.47622538 C9.94074646,7.47622538 11.1082756,6.32918444 11.1082756,4.91434966 C11.1082756,3.49961506 9.94074646,2.35359608 8.49999988,2.35359608 Z" id="Fill-1"></path>
            </g>
        </g>
    </g>
</svg>