<?xml version="1.0" encoding="UTF-8"?>
<svg width="19px" height="19px" viewBox="0 0 19 19" version="1.1" xmlns="http://www.w3.org/2000/svg" xmlns:xlink="http://www.w3.org/1999/xlink">
    <!-- Generator: Sketch 51.1 (57501) - http://www.bohemiancoding.com/sketch -->
    <title>Fill 1</title>
    <desc>Created with Sketch.</desc>
    <defs></defs>
    <g id="UI-kit" stroke="none" stroke-width="1" fill="none" fill-rule="evenodd">
        <g id="icon" transform="translate(-1037.000000, -476.000000)" fill="#B3B3B3">
            <path d="M1052.9866,485.150633 L1051.80347,485.150633 L1051.80347,481.864107 C1051.80347,480.94387 1051.01474,480.286525 1050.22589,480.286525 L1046.93937,480.286525 L1046.93937,478.971893 C1046.93937,477.788734 1046.01913,477 1044.83597,477 C1043.78434,477 1042.86411,477.920237 1042.86411,478.971893 L1042.86411,480.155136 L1039.57755,480.155136 C1038.65732,480.155136 1038,480.94387 1038,481.732605 L1038,484.88774 L1039.18316,484.88774 C1040.36629,484.88774 1041.41806,485.807977 1041.41806,487.122525 C1041.41806,488.437158 1040.36629,489.357395 1039.18316,489.357395 L1038,489.357395 L1038,492.512531 C1038,493.432684 1038.78873,494.09 1039.57755,494.09 L1042.73258,494.09 L1042.73258,492.906842 C1042.73258,491.723712 1043.65284,490.672056 1044.96747,490.672056 C1046.15063,490.672056 1047.20226,491.592294 1047.20226,492.906842 L1047.20226,494.09 L1050.3574,494.09 C1051.27763,494.09 1051.93498,493.301266 1051.93498,492.512531 L1051.93498,489.225893 L1053.11811,489.225893 C1054.30127,489.225893 1055.09,488.305655 1055.09,487.254028 C1055.09,486.202288 1054.16976,485.150633 1052.9866,485.150633 Z" id="Fill-1"></path>
        </g>
    </g>
</svg>