<?xml version="1.0" encoding="UTF-8"?>
<svg width="14px" height="14px" viewBox="0 0 14 14" version="1.1" xmlns="http://www.w3.org/2000/svg" xmlns:xlink="http://www.w3.org/1999/xlink">
    <!-- Generator: Sketch 53 (72520) - https://sketchapp.com -->
    <title>image copy 5</title>
    <desc>Created with Sketch.</desc>
    <g id="UI-kit" stroke="none" stroke-width="1" fill="none" fill-rule="evenodd">
        <g id="icon" transform="translate(-880.000000, -3034.000000)" fill="#D24545" fill-rule="nonzero">
            <g id="icon/activitylist" transform="translate(880.000000, 3034.000000)">
                <path d="M8.60542294,1.67938009 C8.95730956,1.67938009 9.26521036,1.38262044 9.26521036,0.958678074 C9.26521036,0.577129952 8.95730956,0.237976074 8.60542294,0.237976074 L5.30648582,0.237976074 C4.9545992,0.237976074 4.6466984,0.534735727 4.6466984,0.958678074 C4.6466984,1.3402262 4.9545992,1.67938007 5.30648582,1.67938009 L8.60542294,1.67938009 Z M13.3558924,12.1507563 C13.3558924,11.2282374 13.3558924,8.06280113 13.3558924,2.65444752 C13.3558924,1.67938009 12.8280624,1.04346656 11.6844309,1.04346654 L10.1889128,1.04346654 C10.1889128,1.12825501 10.2328986,1.21304348 10.2328986,1.29783197 C10.2328986,1.89135128 9.79304031,2.48487058 9.26521036,2.48487056 L4.6466984,2.48487056 C4.07488264,2.48487056 3.63502434,1.89135126 3.63502434,1.29783197 C3.63502434,1.2130435 3.63502434,1.12825503 3.67901018,1.04346654 L2.13950618,1.04346654 C0.907903,1.04346654 0.643988037,1.72177432 0.643988037,2.65444752 L0.643988037,12.1507563 C0.643988037,13.168218 1.08384633,13.7617373 2.22747785,13.7617373 L11.6844309,13.7617373 M10.2768844,4.60458236 C10.4968136,4.60458236 10.7167427,4.81655354 10.7167427,5.07091895 C10.7167427,5.28289013 10.4528277,5.53725554 10.2328986,5.53725554 L3.76698184,5.53725554 C3.54705269,5.53725554 3.37110938,5.28289013 3.37110938,5.07091895 C3.37110938,4.85894777 3.59103853,4.60458236 3.81096767,4.60458236 L10.2768844,4.60458236 Z M3.81096767,10.8789293 C3.59103853,10.8789293 3.41509522,10.6245638 3.41509522,10.4125927 C3.41509522,10.2006215 3.63502436,9.94625607 3.85495349,9.94625607 L6.80200398,9.94625607 C7.02193312,9.94625607 7.24186227,10.1582273 7.24186227,10.4125927 C7.24186227,10.6669581 6.97794731,10.8789293 6.75801816,10.8789293 L3.81096767,10.8789293 Z M3.28313773,7.78415005 C3.28313773,7.57217888 3.50306687,7.36020768 3.722996,7.36020768 L10.1889128,7.36020768 C10.4088419,7.36020768 10.6287711,7.52978462 10.6287711,7.78415005 C10.6287711,7.99612123 10.4528277,8.29288088 10.2328986,8.29288086 L3.76698184,8.29288086 C3.54705269,8.29288086 3.28313773,7.99612121 3.28313773,7.78415005 Z M11.6844309,13.7617404 C12.7957086,13.7632509 13.3499965,13.2163828 13.3472946,12.1211362 C13.3445927,11.0258897 12.7903048,11.5727577 11.6844309,13.7617404 Z" id="Shape"></path>
            </g>
        </g>
    </g>
</svg>