<?xml version="1.0" encoding="UTF-8"?>
<svg width="15px" height="15px" viewBox="0 0 15 15" version="1.1" xmlns="http://www.w3.org/2000/svg" xmlns:xlink="http://www.w3.org/1999/xlink">
    <!-- Generator: Sketch 51.1 (57501) - http://www.bohemiancoding.com/sketch -->
    <title>Group 6 Copy 2</title>
    <desc>Created with Sketch.</desc>
    <defs>
        <polygon id="path-1" points="0 0.0153919192 14.9847987 0.0153919192 14.9847987 15.1616162 0 15.1616162"></polygon>
    </defs>
    <g id="UI-kit" stroke="none" stroke-width="1" fill="none" fill-rule="evenodd">
        <g id="icon" transform="translate(-1543.000000, -647.000000)">
            <g id="Group-6-Copy-2" transform="translate(1543.000000, 647.000000)">
                <g id="Group-3" transform="translate(0.000000, 0.022992)">
                    <mask id="mask-2" fill="white">
                        <use xlink:href="#path-1"></use>
                    </mask>
                    <g id="Clip-2"></g>
                    <path d="M11.8180519,11.9607265 C10.6624063,13.1288618 9.12621646,13.7721366 7.49243165,13.7721366 C5.85864684,13.7721366 4.32241899,13.1288618 3.16677342,11.9607265 C2.01108987,10.7926295 1.37463418,9.23988808 1.37463418,7.58853859 C1.37463418,5.93711232 2.01108987,4.38433253 3.16677342,3.21627394 C4.32241899,2.0481002 5.85864684,1.40478707 7.49243165,1.40478707 C9.12621646,1.40478707 10.6624063,2.0481002 11.8180519,3.21627394 C12.9736975,4.38433253 13.6101532,5.93711232 13.6101532,7.58853859 C13.6101532,9.23988808 12.9736975,10.7926295 11.8180519,11.9607265 M14.3960772,4.6408901 C14.0187228,3.73917697 13.478419,2.92920121 12.7902418,2.23357091 C12.1020266,1.53794061 11.3007228,0.991853737 10.4085835,0.610433535 C9.48507722,0.21557899 8.50396329,0.0153688889 7.49243165,0.0153688889 C6.4809,0.0153688889 5.4997481,0.21557899 4.57624177,0.610433535 C3.68410253,0.991853737 2.88279873,1.53794061 2.19458354,2.23357091 C1.50636835,2.92920121 0.966064557,3.73917697 0.588710127,4.6408901 C0.198064557,5.57438505 -1.13924051e-05,6.5660699 -1.13924051e-05,7.58853859 C-1.13924051e-05,8.61093051 0.198064557,9.60265374 0.588710127,10.5361103 C0.966064557,11.4378618 1.50636835,12.2477992 2.19458354,12.9434295 C2.88279873,13.6390598 3.68410253,14.1851083 4.57624177,14.5665669 C5.4997481,14.9614214 6.4809,15.1616315 7.49243165,15.1616315 C8.50396329,15.1616315 9.48507722,14.9614214 10.4085835,14.5665669 C11.3007228,14.1851083 12.1020266,13.6390598 12.7902418,12.9434295 C13.478419,12.2477992 14.0187228,11.4378234 14.3960772,10.5361103 C14.7867228,9.60265374 14.9847987,8.61093051 14.9847987,7.58853859 C14.9847987,6.5660699 14.7867228,5.57438505 14.3960772,4.6408901" id="Fill-1" fill="#5B5B5B" mask="url(#mask-2)"></path>
                </g>
                <path d="M10.408838,6.91667556 L8.17976203,6.91667556 L8.17976203,6.91586949 L6.80504051,6.91586949 L6.80504051,6.91667556 L4.57592658,6.91667556 C4.19693924,6.91667556 3.88862278,7.22839071 3.88862278,7.61153818 C3.88862278,7.99457051 4.19693924,8.30624727 4.57592658,8.30624727 L6.80504051,8.30624727 L6.80504051,8.30728364 L8.17976203,8.30728364 L8.17976203,8.30624727 L10.408838,8.30624727 C10.7878253,8.30624727 11.0961797,7.99457051 11.0961797,7.61153818 C11.0961797,7.22839071 10.7878253,6.91667556 10.408838,6.91667556" id="Fill-4" fill="#5B5B5B"></path>
            </g>
        </g>
    </g>
</svg>