<?xml version="1.0" encoding="UTF-8"?>
<svg width="19px" height="19px" viewBox="0 0 19 19" version="1.1" xmlns="http://www.w3.org/2000/svg" xmlns:xlink="http://www.w3.org/1999/xlink">
    <!-- Generator: Sketch 51.1 (57501) - http://www.bohemiancoding.com/sketch -->
    <title>zhifeiji</title>
    <desc>Created with Sketch.</desc>
    <defs>
        <polygon id="path-1" points="0 0 19 0 19 19 0 19"></polygon>
    </defs>
    <g id="UI-kit" stroke="none" stroke-width="1" fill="none" fill-rule="evenodd">
        <g id="icon" transform="translate(-1096.000000, -2990.000000)">
            <g id="zhifeiji" transform="translate(1096.000000, 2990.000000)">
                <mask id="mask-2" fill="white">
                    <use xlink:href="#path-1"></use>
                </mask>
                <g id="Clip-2"></g>
                <path d="M18.6543797,0.12882578 C18.3086533,-0.0429419266 17.963033,-0.0429419266 17.7912433,0.12882578 L0.517409992,8.70666116 C0.173857179,8.70666116 0,9.05022308 0,9.39367897 C0,9.73724089 0.171763153,10.0808028 0.345620333,10.0808028 L4.49131488,12.6552243 C4.83693522,12.826886 5.18258206,12.826886 5.52820239,12.4834301 L14.6826218,4.24918315 L15.0282421,4.42095086 L6.73693257,13.1662067 C6.56516941,13.338001 6.56516941,13.5097687 6.56516941,13.6815629 L6.56516941,17.4561582 C6.56516941,17.7997201 6.73693257,18.1432821 7.0825529,18.3150498 C7.42817323,18.486844 7.77389959,18.3150498 7.94568925,18.1432821 L10.0195173,16.0841902 L14.1651058,18.8282323 C14.3368955,19 14.5108322,19 14.6826218,19 L15.0282421,19 C15.3738625,18.8282323 15.5456256,18.6564381 15.5456256,18.3128762 L19,1.15733794 C19,0.642008309 19,0.300619993 18.6543797,0.12882578 Z" id="Fill-1" fill="#D24545" mask="url(#mask-2)"></path>
            </g>
        </g>
    </g>
</svg>