<?xml version="1.0" encoding="UTF-8"?>
<svg width="18px" height="18px" viewBox="0 0 18 18" version="1.1" xmlns="http://www.w3.org/2000/svg" xmlns:xlink="http://www.w3.org/1999/xlink">
    <!-- Generator: Sketch 51.1 (57501) - http://www.bohemiancoding.com/sketch -->
    <title>Group 3 Copy 5</title>
    <desc>Created with Sketch.</desc>
    <defs>
        <polygon id="path-1" points="4.47761194e-06 1.79104478e-05 14.9597015 1.79104478e-05 14.9597015 14.9597015 4.47761194e-06 14.9597015"></polygon>
    </defs>
    <g id="UI-kit" stroke="none" stroke-width="1" fill="none" fill-rule="evenodd">
        <g id="icon" transform="translate(-1196.000000, -2967.000000)">
            <g id="Group-3" transform="translate(1198.000000, 2969.000000)">
                <mask id="mask-2" fill="white">
                    <use xlink:href="#path-1"></use>
                </mask>
                <g id="Clip-2"></g>
                <path d="M1.63276567,5.6044209 C0.732497015,5.6044209 4.47761194e-06,4.87197313 4.47761194e-06,3.9716597 L4.47761194e-06,1.6327791 C4.47761194e-06,0.732465672 0.732497015,1.79104478e-05 1.63276567,1.79104478e-05 L3.97160149,1.79104478e-05 C4.87191493,1.79104478e-05 5.60436269,0.732465672 5.60436269,1.6327791 L5.60436269,3.26558507 L3.26557164,3.26558507 L3.26557164,5.6044209 L1.63276567,5.6044209 Z M11.6941836,5.6044209 L11.6941836,3.26558507 L9.35534776,3.26558507 L9.35534776,1.6327791 C9.35534776,1.19657015 9.52518358,0.786510448 9.83360149,0.478226866 C10.1418403,0.169898507 10.5518552,1.79104478e-05 10.988109,1.79104478e-05 L13.3269448,1.79104478e-05 C13.7630194,1.79104478e-05 14.1730791,0.169853731 14.481497,0.478271642 C14.7898701,0.786555224 14.959706,1.19661493 14.959706,1.6327791 L14.959706,3.9716597 C14.959706,4.40782388 14.7898701,4.81783881 14.4814522,5.12616716 C14.1730791,5.4345403 13.7630194,5.6044209 13.3269448,5.6044209 L11.6941836,5.6044209 Z M7.4799,10.2820925 C5.9347209,10.2820925 4.67763134,9.02504776 4.67763134,7.47991343 C4.67763134,5.93473433 5.9347209,4.67768955 7.4799,4.67768955 C9.02503433,4.67768955 10.2820791,5.93473433 10.2820791,7.47991343 C10.2820791,9.02504776 9.02503433,10.2820925 7.4799,10.2820925 Z M1.63276567,14.9597194 C1.19664627,14.9597194 0.786676119,14.7899284 0.478258209,14.4816 C0.169840299,14.1731821 4.47761194e-06,13.7631224 4.47761194e-06,13.327003 L4.47761194e-06,10.9880776 C4.47761194e-06,10.5519134 0.169840299,10.1418985 0.478258209,9.83352537 C0.786586567,9.52515224 1.19660149,9.35536119 1.63276567,9.35536119 L3.26557164,9.35536119 L3.26557164,11.694197 L5.60436269,11.694197 L5.60436269,13.327003 C5.60436269,13.7631224 5.43452687,14.1731821 5.12615373,14.4815552 C4.8177806,14.7899284 4.40781045,14.9597194 3.97160149,14.9597194 L1.63276567,14.9597194 Z M10.988109,14.9597194 C10.5519,14.9597194 10.1418851,14.7899284 9.83355672,14.4815552 C9.52518358,14.1731821 9.35534776,13.7631224 9.35534776,13.327003 L9.35534776,11.694197 L11.6941836,11.694197 L11.6941836,9.35536119 L13.3269448,9.35536119 C13.7630642,9.35536119 14.1731239,9.52515224 14.481497,9.83357015 C14.7898701,10.1419433 14.959706,10.5519582 14.959706,10.9880776 L14.959706,13.327003 C14.959706,13.7630776 14.7899149,14.1731373 14.4815418,14.4815104 C14.1730343,14.7899284 13.7630194,14.9597194 13.3269448,14.9597194 L10.988109,14.9597194 Z" id="Fill-1" fill="#CBCBCB" mask="url(#mask-2)"></path>
            </g>
        </g>
    </g>
</svg>