<?xml version="1.0" encoding="UTF-8"?>
<svg width="18px" height="18px" viewBox="0 0 18 18" version="1.1" xmlns="http://www.w3.org/2000/svg" xmlns:xlink="http://www.w3.org/1999/xlink">
    <!-- Generator: Sketch 51.1 (57501) - http://www.bohemiancoding.com/sketch -->
    <title>Group 3 Copy 4</title>
    <desc>Created with Sketch.</desc>
    <defs>
        <polygon id="path-1" points="0.0368336236 0.0111791792 11.9072985 0.0111791792 11.9072985 3.5128294 0.0368336236 3.5128294"></polygon>
        <polygon id="path-3" points="0.0368336236 0.0393765194 11.9072985 0.0393765194 11.9072985 3.54102674 0.0368336236 3.54102674"></polygon>
        <polygon id="path-5" points="0.0368336236 0.0218138138 11.9072985 0.0218138138 11.9072985 3.5235098 0.0368336236 3.5235098"></polygon>
    </defs>
    <g id="UI-kit" stroke="none" stroke-width="1" fill="none" fill-rule="evenodd">
        <g id="icon" transform="translate(-1168.000000, -2967.000000)">
            <g id="Group-16" transform="translate(1169.000000, 2969.000000)">
                <path d="M1.74893889,3.547424 C0.784536069,3.547424 4.57106274e-06,2.76199857 4.57106274e-06,1.79655312 C4.57106274e-06,0.831199199 0.784536069,0.0457737738 1.74893889,0.0457737738 C2.7133417,0.0457737738 3.49791891,0.831199199 3.49791891,1.79655312 C3.49791891,2.76199857 2.7133417,3.547424 1.74893889,3.547424" id="Fill-1" fill="#CBCBCB"></path>
                <g id="Group-5" transform="translate(4.296799, 0.034595)">
                    <mask id="mask-2" fill="white">
                        <use xlink:href="#path-1"></use>
                    </mask>
                    <g id="Clip-4"></g>
                    <path d="M1.78576794,3.5128294 C0.821365122,3.5128294 0.0368336236,2.72740398 0.0368336236,1.76195853 C0.0368336236,0.796604605 0.821365122,0.0111791792 1.78576794,0.0111791792 L10.158355,0.0111791792 C11.1227578,0.0111791792 11.907335,0.796604605 11.907335,1.76195853 C11.907335,2.72740398 11.1227578,3.5128294 10.158355,3.5128294 L1.78576794,3.5128294 Z" id="Fill-3" fill="#CBCBCB" mask="url(#mask-2)"></path>
                </g>
                <path d="M1.74893889,9.38714715 C0.784536069,9.38714715 4.57106274e-06,8.60172172 4.57106274e-06,7.63632204 C4.57106274e-06,6.67092235 0.784536069,5.88549693 1.74893889,5.88549693 C2.7133417,5.88549693 3.49791891,6.67092235 3.49791891,7.63632204 C3.49791891,8.60172172 2.7133417,9.38714715 1.74893889,9.38714715" id="Fill-6" fill="#CBCBCB"></path>
                <g id="Group-10" transform="translate(4.296799, 5.846120)">
                    <mask id="mask-4" fill="white">
                        <use xlink:href="#path-3"></use>
                    </mask>
                    <g id="Clip-9"></g>
                    <path d="M1.78576794,3.54102674 C0.821365122,3.54102674 0.0368336236,2.75560132 0.0368336236,1.79020163 C0.0368336236,0.824801945 0.821365122,0.0393765194 1.78576794,0.0393765194 L10.158355,0.0393765194 C11.1227578,0.0393765194 11.907335,0.824801945 11.907335,1.79020163 C11.907335,2.75560132 11.1227578,3.54102674 10.158355,3.54102674 L1.78576794,3.54102674 Z" id="Fill-8" fill="#CBCBCB" mask="url(#mask-4)"></path>
                </g>
                <path d="M1.74893889,15.2269161 C0.784536069,15.2269161 4.57106274e-06,14.4414906 4.57106274e-06,13.4760909 C4.57106274e-06,12.5106455 0.784536069,11.7252201 1.74893889,11.7252201 C2.7133417,11.7252201 3.49791891,12.5105997 3.49791891,13.4759994 C3.49791891,14.4414906 2.7133417,15.2269161 1.74893889,15.2269161" id="Fill-11" fill="#CBCBCB"></path>
                <g id="Group-15" transform="translate(4.296799, 11.703406)">
                    <mask id="mask-6" fill="white">
                        <use xlink:href="#path-5"></use>
                    </mask>
                    <g id="Clip-14"></g>
                    <path d="M1.78576794,3.5235098 C0.821365122,3.5235098 0.0368336236,2.73808437 0.0368336236,1.77268468 C0.0368336236,0.807239239 0.821365122,0.0218138138 1.78576794,0.0218138138 L10.158355,0.0218138138 C11.1227578,0.0218138138 11.907335,0.807193479 11.907335,1.77259316 C11.907335,2.73808437 11.1227578,3.5235098 10.158355,3.5235098 L1.78576794,3.5235098 Z" id="Fill-13" fill="#CBCBCB" mask="url(#mask-6)"></path>
                </g>
            </g>
        </g>
    </g>
</svg>