<?xml version="1.0" encoding="UTF-8"?>
<svg width="12px" height="12px" viewBox="0 0 12 12" version="1.1" xmlns="http://www.w3.org/2000/svg" xmlns:xlink="http://www.w3.org/1999/xlink">
    <!-- Generator: Sketch 49 (51002) - http://www.bohemiancoding.com/sketch -->
    <title>Shape</title>
    <desc>Created with Sketch.</desc>
    <defs></defs>
    <g id="Symbols" stroke="none" stroke-width="1" fill="none" fill-rule="evenodd">
        <g id="graphic/save/hover" transform="translate(-2.000000, -2.000000)" fill="#999999" fill-rule="nonzero" stroke="#999999" stroke-width="0.5">
            <g id="icon/graphic/save">
                <path d="M9.58203125,5.45689655 L4.328125,5.45689655 L5.890625,3.73275862 C6.046875,3.56034483 6.046875,3.30172414 5.890625,3.12931034 C5.734375,2.95689655 5.5,2.95689655 5.34375,3.12931034 L3.1171875,5.56465517 C3.0390625,5.65086207 3,5.75862069 3,5.86637931 C3,5.97413793 3.0390625,6.08189655 3.1171875,6.16810345 L5.32421875,8.60344828 C5.48046875,8.77586207 5.71484375,8.77586207 5.87109375,8.60344828 C6.02734375,8.43103448 6.02734375,8.17241379 5.87109375,8 L4.34765625,6.31896552 L9.58203125,6.31896552 C11.046875,6.31896552 12.21875,7.61206897 12.21875,9.22844828 C12.21875,10.8448276 11.046875,12.137931 9.58203125,12.137931 L5.578125,12.137931 C5.36328125,12.137931 5.1875,12.3318966 5.1875,12.5689655 C5.1875,12.8060345 5.36328125,13 5.578125,13 L9.58203125,13 C11.4765625,13 13,11.3189655 13,9.22844828 C13,7.13793103 11.4765625,5.45689655 9.58203125,5.45689655 Z" id="Shape"></path>
            </g>
        </g>
    </g>
</svg>