<?xml version="1.0" encoding="UTF-8"?>
<svg width="10px" height="10px" viewBox="0 0 10 10" version="1.1" xmlns="http://www.w3.org/2000/svg" xmlns:xlink="http://www.w3.org/1999/xlink">
    <!-- Generator: Sketch 49 (51002) - http://www.bohemiancoding.com/sketch -->
    <title>shape</title>
    <desc>Created with Sketch.</desc>
    <defs></defs>
    <g id="Symbols" stroke="none" stroke-width="1" fill="none" fill-rule="evenodd">
        <g id="graphic/change/normal" transform="translate(-3.000000, -3.000000)" fill="#BDBDBD">
            <g id="icon_change_normal">
                <path d="M12.6875,3 L12.0625,3 C11.8958333,3 11.75,3.14583333 11.75,3.3125 L11.75,4.77083333 C11.75,4.95833333 11.5416667,5.08333333 11.4166667,4.9375 C10.4375,3.85416667 9.04166667,3.29166667 7.52083333,3.4375 C6.97916667,3.47916667 6.45833333,3.64583333 5.97916667,3.89583333 C5.72916667,4.02083333 5.47916667,4.16666667 5.27083333,4.33333333 C5.125,4.4375 5.10416667,4.66666667 5.22916667,4.8125 L5.66666667,5.25 C5.77083333,5.35416667 5.9375,5.375 6.0625,5.29166667 C6.3125,5.125 6.58333333,4.97916667 6.875,4.85416667 C7,4.8125 7.14583333,4.77083333 7.29166667,4.72916667 C8.60416667,4.47916667 9.85416667,5 10.5625,5.85416667 C10.8125,6.14583333 10.625,6.33333333 10.4166667,6.33333333 L8.95833333,6.33333333 C8.79166667,6.33333333 8.625,6.47916667 8.625,6.64583333 L8.625,7.27083333 C8.625,7.4375 8.79166667,7.58333333 8.95833333,7.58333333 L12.75,7.58333333 C12.8958333,7.58333333 13,7.45833333 13,7.3125 L13,3.3125 C13,3.14583333 12.8541667,3 12.6875,3 Z M10.7916667,10.375 C10.6666667,10.25 10.4791667,10.25 10.3541667,10.375 C10.0208333,10.7083333 9.60416667,10.9791667 9.14583333,11.1458333 C9.02083333,11.1875 8.875,11.2291667 8.72916667,11.2708333 C7.41666667,11.5208333 6.16666667,11 5.45833333,10.1458333 C5.20833333,9.85416667 5.39583333,9.66666667 5.60416667,9.66666667 L7.0625,9.66666667 C7.22916667,9.66666667 7.375,9.52083333 7.375,9.35416667 L7.375,8.72916667 C7.375,8.5625 7.22916667,8.41666667 7.0625,8.41666667 L3.27083333,8.41666667 C3.125,8.41666667 3,8.54166667 3,8.6875 L3,12.6875 C3,12.8541667 3.14583333,13 3.3125,13 L3.9375,13 C4.10416667,13 4.25,12.8541667 4.25,12.6875 L4.25,11.2291667 C4.25,11.0416667 4.45833333,10.9166667 4.58333333,11.0625 C5.54166667,12.1458333 6.95833333,12.7083333 8.47916667,12.5625 C9.02083333,12.5208333 9.54166667,12.3541667 10.0208333,12.1041667 C10.4791667,11.875 10.875,11.5833333 11.2083333,11.25 C11.3333333,11.125 11.3333333,10.9166667 11.2083333,10.8125 L10.7916667,10.375 L10.7916667,10.375 Z" id="shape"></path>
            </g>
        </g>
    </g>
</svg>