<?xml version="1.0" encoding="UTF-8"?>
<svg width="234px" height="36px" viewBox="0 0 234 36" version="1.1" xmlns="http://www.w3.org/2000/svg" xmlns:xlink="http://www.w3.org/1999/xlink">
    <!-- Generator: Sketch 53 (72520) - https://sketchapp.com -->
    <title>Group</title>
    <desc>Created with Sketch.</desc>
    <defs>
        <polygon id="path-1" points="0 0.18008 4.98914583 0.18008 4.98914583 4.96988 0 4.96988"></polygon>
        <polygon id="path-3" points="0.1391625 0.1115625 5.944725 0.1115625 5.944725 5.9168625 0.1391625 5.9168625"></polygon>
        <polygon id="path-5" points="0.0181222222 0.156683333 6.8614 0.156683333 6.8614 7 0.0181222222 7"></polygon>
    </defs>
    <g id="UI规范" stroke="none" stroke-width="1" fill="none" fill-rule="evenodd">
        <g id="icon" transform="translate(-461.000000, -190.000000)">
            <g id="Group" transform="translate(461.000000, 190.000000)">
                <path d="M145.392,9.864 L146.608,9.864 C148.608,12.04 150.912,13.736 153.536,14.984 L152.624,16.616 C150.032,15.272 147.824,13.528 146,11.368 C144.32,13.384 142.096,15.144 139.312,16.632 L138.416,15 C141.216,13.624 143.536,11.912 145.392,9.864 Z M145.616,14.2 L147.296,14.2 L147.296,17.544 L151.472,17.544 L151.472,19.16 L147.296,19.16 L147.296,22.488 L152.64,22.488 L152.64,24.12 L139.168,24.12 L139.168,22.488 L141.44,22.488 L141.44,16.504 L143.088,16.504 L143.088,22.488 L145.616,22.488 L145.616,14.2 Z M159.424,9.96 L161.104,9.96 L161.104,22.488 L162.864,22.488 L162.864,9.96 L164.544,9.96 L164.544,22.488 L169.152,22.488 L169.152,24.12 L154.848,24.12 L154.848,22.488 L159.424,22.488 L159.424,9.96 Z M167.376,12.984 L168.848,13.4 C168.24,16.136 167.472,18.536 166.544,20.584 L165.04,20.056 C165.936,18.2 166.704,15.832 167.376,12.984 Z M156.56,12.936 C157.36,15.064 158.08,17.512 158.704,20.264 L157.184,20.632 C156.64,18.136 155.968,15.736 155.136,13.416 L156.56,12.936 Z M184.864,11.384 L184.864,23.96 L183.232,23.96 L183.232,23.08 L180.576,23.08 L180.576,23.96 L178.96,23.96 L178.96,11.384 L184.864,11.384 Z M180.576,21.528 L183.232,21.528 L183.232,12.936 L180.576,12.936 L180.576,21.528 Z M173.344,13.416 C172.992,14.184 172.592,14.888 172.144,15.544 L170.672,14.616 C171.696,13.112 172.432,11.528 172.848,9.848 L174.496,10.216 C174.336,10.776 174.176,11.32 174,11.832 L178.24,11.832 L178.24,13.416 L176.112,13.416 C176.096,14.344 176.048,15.208 175.968,16.024 L178.4,16.024 L178.4,17.608 L175.744,17.608 L175.552,18.568 C176.512,19.528 177.488,20.616 178.48,21.8 L177.456,23.352 C176.512,21.96 175.728,20.888 175.088,20.12 C174.416,21.736 173.28,23.128 171.664,24.28 L170.576,22.936 C172.224,21.704 173.296,20.216 173.808,18.456 L174,17.608 L170.928,17.608 L170.928,16.024 L174.256,16.024 C174.336,15.224 174.384,14.344 174.416,13.416 L173.344,13.416 Z M192.752,10.632 L200.576,10.632 L200.576,18.6 L192.752,18.6 L192.752,10.632 Z M198.896,17 L198.896,12.248 L194.416,12.248 L194.416,17 L198.896,17 Z M188.848,9.96 C189.856,10.744 190.72,11.528 191.424,12.296 L190.288,13.448 C189.68,12.712 188.8,11.944 187.68,11.112 L188.848,9.96 Z M186.608,14.584 L190.384,14.584 L190.384,21.16 C190.784,20.792 191.216,20.376 191.664,19.928 L192.128,21.672 C191.136,22.632 190.096,23.48 188.992,24.232 L188.352,22.728 C188.624,22.488 188.768,22.2 188.768,21.864 L188.768,16.184 L186.608,16.184 L186.608,14.584 Z M194.416,19.256 L195.888,19.96 C195.12,21.816 194.224,23.432 193.168,24.776 L191.696,23.704 C192.752,22.472 193.664,20.984 194.416,19.256 Z M198.784,19.176 C200,20.904 200.944,22.408 201.6,23.688 L200.16,24.696 C199.488,23.288 198.576,21.736 197.424,20.04 L198.784,19.176 Z M208.208,12.04 L209.696,12.232 C209.6,12.456 209.504,12.68 209.392,12.888 L213.472,12.888 L213.472,13.992 C213.088,14.744 212.48,15.416 211.68,16.008 C212.656,16.424 213.744,16.76 214.96,17.032 L214.096,18.28 C212.64,17.896 211.376,17.416 210.304,16.84 C209.104,17.448 207.632,17.944 205.872,18.328 L205.152,17 C206.64,16.76 207.904,16.44 208.96,16.024 C208.512,15.704 208.096,15.368 207.744,15.016 C207.312,15.4 206.832,15.752 206.32,16.072 L205.408,14.856 C206.784,14.088 207.728,13.144 208.208,12.04 Z M210.336,15.352 C210.944,14.968 211.44,14.536 211.808,14.072 L208.624,14.072 C208.608,14.088 208.592,14.104 208.592,14.12 C209.104,14.568 209.68,14.984 210.336,15.352 Z M207.28,19.672 C209.376,20.04 211.392,20.552 213.328,21.224 L212.784,22.584 C210.8,21.864 208.752,21.304 206.624,20.904 L207.28,19.672 Z M208.88,17.528 C210.176,17.896 211.36,18.328 212.432,18.84 L211.664,20.024 C210.512,19.416 209.344,18.952 208.144,18.616 L208.88,17.528 Z M216.752,10.408 L216.752,24.664 L215.12,24.664 L215.12,24.136 L204.88,24.136 L204.88,24.664 L203.248,24.664 L203.248,10.408 L216.752,10.408 Z M204.88,22.664 L215.12,22.664 L215.12,11.88 L204.88,11.88 L204.88,22.664 Z M226.32,12.904 L223.664,12.904 L223.664,11.48 L225.824,11.48 C225.6,11.064 225.36,10.664 225.088,10.296 L226.512,9.768 C226.832,10.264 227.12,10.84 227.376,11.48 L229.36,11.48 C229.68,10.92 229.952,10.328 230.208,9.72 L231.632,10.232 C231.424,10.68 231.2,11.096 230.976,11.48 L232.944,11.48 L232.944,12.904 L230.336,12.904 L230.336,15.72 L233.328,15.72 L233.328,17.16 L223.248,17.16 L223.248,15.72 L226.32,15.72 L226.32,12.904 Z M228.88,12.904 L227.776,12.904 L227.776,15.72 L228.88,15.72 L228.88,12.904 Z M231.808,13.048 L232.976,13.608 C232.688,14.264 232.32,14.904 231.872,15.528 L230.704,14.92 C231.152,14.28 231.52,13.656 231.808,13.048 Z M232.304,17.944 L232.304,24.664 L230.736,24.664 L230.736,24.104 L226,24.104 L226,24.664 L224.432,24.664 L224.432,17.944 L232.304,17.944 Z M226,22.792 L230.736,22.792 L230.736,21.672 L226,21.672 L226,22.792 Z M226,20.424 L230.736,20.424 L230.736,19.256 L226,19.256 L226,20.424 Z M224.928,13.112 C225.344,13.72 225.696,14.36 225.984,15.032 L224.832,15.528 C224.496,14.792 224.128,14.152 223.712,13.608 L224.928,13.112 Z M220.848,9.96 C221.808,10.744 222.608,11.528 223.264,12.296 L222.128,13.448 C221.552,12.712 220.72,11.944 219.664,11.112 L220.848,9.96 Z M218.576,14.584 L222.192,14.584 L222.192,21.192 C222.576,20.84 222.976,20.44 223.408,20.008 L223.84,21.768 C222.88,22.696 221.872,23.512 220.816,24.232 L220.192,22.728 C220.448,22.504 220.592,22.216 220.592,21.896 L220.592,16.184 L218.576,16.184 L218.576,14.584 Z" id="企业知识图谱" fill="#42444C"></path>
                <rect id="Rectangle" fill="#EDEFF0" x="129" y="10" width="1" height="14" rx="0.5"></rect>
                <g id="Group-38">
                    <path d="M57.6808694,19.6068359 L54.2070036,19.6068359 L54.2070036,22.1664061 L52.4119372,22.1664061 L52.4119372,19.6068359 L49.0641711,19.6068359 L49.054511,22.1664061 C49.054511,22.8907557 49.4393652,23.2525947 50.2090737,23.2525947 L56.5068139,23.2525947 C57.2894601,23.2525947 57.6808694,22.8561669 57.6808694,22.0626397 L57.6808694,19.6068359 Z M49.0641711,17.8688334 L52.4119372,17.8688334 L52.4119372,15.8571429 L54.2070036,15.8571429 L54.2070036,17.8688334 L57.6808694,17.8688334 L57.6808694,15.7626114 C57.6808694,15.4795206 57.5804727,15.2464661 57.3800242,15.0637836 C57.1794031,14.8747206 56.8756253,14.7805249 56.4680007,14.7805249 L50.2770398,14.7805249 C49.4619631,14.7805249 49.054511,15.1457221 49.054511,15.8759484 L49.0641711,17.8688334 Z M46.8130067,13.514844 L46.8130067,11.5597381 C47.7250302,10.9490613 48.2425392,10.0957593 48.3655339,9 L50.2090737,9 C50.1573228,9.30240002 50.1024668,9.59841958 50.0441608,9.88789078 L59.9030533,9.88789078 L59.9030533,11.6069199 L49.2678972,11.6069199 C48.9185786,12.0730289 48.5595998,12.4474609 48.1907883,12.7308875 C47.8478523,12.9951727 47.3884768,13.2567714 46.8130067,13.514844 L46.8130067,13.514844 Z M46.628601,19.6068359 L46.628601,17.8688334 L47.259272,17.8688334 L47.2496119,15.3754185 C47.2496119,14.7459361 47.4921511,14.1948663 47.9774021,13.7225446 C48.4366051,13.2691965 49.0771088,13.0425224 49.8985682,13.0425224 L56.8269795,13.0425224 C57.6227359,13.0363098 58.2566845,13.2535811 58.7288253,13.6943363 C59.2268415,14.1602775 59.4761083,14.7271306 59.4761083,15.394224 L59.4761083,17.8688334 L60,17.8688334 L60,19.6068359 L59.4761083,19.6068359 L59.4761083,22.2229906 C59.4761083,24.0743302 58.5768501,25 56.7785061,25 L49.9470416,25 C49.0672762,25 48.3782991,24.7481399 47.8802829,24.2442518 C47.4597205,23.8224701 47.2496119,23.2494045 47.2496119,22.5253906 L47.259272,19.6068359 L46.628601,19.6068359 Z M42,24.7922994 L45.9008108,24.7922994 L45.9008108,23.0542968 L42,23.0542968 L42,24.7922994 Z M42,17.5006139 L45.9008108,17.5006139 L45.9008108,15.7533765 L42,15.7533765 L42,17.5006139 Z M42,11.0116905 L45.9008108,11.0116905 L45.9008108,9.2644531 L42,9.2644531 L42,11.0116905 Z" id="Fill-1" fill="#4FA2F1"></path>
                    <path d="M71.5216072,14.4647012 L71.5216072,12.7183604 C71.9316086,12.6308931 72.259922,12.3209185 72.5070675,11.7887703 C72.6437346,11.4944863 72.7833502,11.0533108 72.9267813,10.4647429 C73.0696922,9.89520411 73.1931782,9.41947566 73.2972395,9.03755751 L75.170516,9.03755751 L74.8581587,10.1833119 L80,10.1833119 L80,11.9201381 L79.1997688,11.9201381 L79.0339644,15.2722711 C79.0272005,15.4350203 78.9687527,15.9890353 78.8581009,16.9341492 C78.7606301,17.8231772 78.5525076,18.6683046 78.2339066,19.4695315 C78.019367,19.9953366 77.671282,20.6306428 77.190172,21.3756168 C77.9770487,22.1456292 78.9132534,22.7215111 80,23.1032623 L80,25 C78.4061281,24.5117524 77.0502096,23.7731213 75.9317242,22.78394 C75.3198439,23.2596685 74.8191357,23.6163813 74.4290793,23.8545794 C73.7719324,24.261369 72.9038878,24.6432871 71.8240786,25 L71.8240786,23.1127769 C72.6109553,22.7370348 73.212603,22.4085318 73.6288481,22.1266001 C73.9151901,21.9264603 74.2500939,21.6572147 74.6337332,21.3190302 C73.9445007,20.1799526 73.4694609,19.13769 73.2094811,18.1924092 C72.8190779,16.7967721 72.5851135,15.5510313 72.5070675,14.4553535 L74.4094811,14.4553535 C74.5459749,15.7827194 74.7542708,16.8904155 75.0340223,17.7792766 C75.2097124,18.3615015 75.372048,18.7839817 75.5215494,19.0468843 C75.6517994,19.2849154 75.7655731,19.513432 75.8630438,19.732434 C76.4875849,18.6430993 76.8547478,17.2942005 76.9659199,15.6854037 L77.2194826,11.9201381 L74.3706316,11.9201381 C73.862986,13.3912241 72.9136002,14.2393561 71.5216072,14.4647012 L71.5216072,14.4647012 Z M62,24.9717901 L62,23.2346301 L65.5509178,23.2346301 L65.5509178,20.314492 L62.1852291,20.314492 L62.1852291,18.5774989 L65.5509178,18.5774989 L65.5509178,17.0189457 L64.5559185,17.037641 C64.1070675,17.0438171 63.6485041,16.962359 63.1802284,16.7934337 C62.8420292,16.668242 62.581876,16.44924 62.3997688,16.1362607 C62.2566845,15.8920535 62.1852291,15.6198032 62.1852291,15.3191762 C62.1852291,15.0187162 62.2924122,14.6464795 62.5071253,14.2019655 C62.5915884,14.0266971 62.7738691,13.6888465 63.053447,13.1879127 L64.4192513,10.73716 L62,10.73716 L62,9 L70.9364359,9 L70.9364359,10.73716 L66.6827576,10.73716 L64.7316086,14.267566 C64.6207834,14.4742157 64.5658043,14.6713509 64.5658043,14.8591385 C64.5658043,15.1158649 64.7704582,15.2442281 65.1802862,15.2442281 L67.8439081,15.2442281 C68.1297297,15.2442281 68.3704582,15.1158649 68.5655731,14.8591385 C68.6372019,14.759152 68.6727562,14.6494841 68.6727562,14.5304685 C68.6727562,14.4491774 68.6632172,14.3615432 68.643619,14.267566 L68.4191935,13.3004183 L70.3998266,13.3004183 L70.6631016,14.4460059 C70.7279665,14.7215945 70.7605723,14.9405965 70.7605723,15.1033457 C70.7605723,15.6166317 70.5623356,16.0579742 70.1658621,16.4272062 C69.7362625,16.8341627 69.1443272,17.037641 68.3900564,17.037641 L67.3655731,17.037641 L67.3558607,18.5774989 L70.7217228,18.5774989 L70.7217228,20.314492 L67.3558607,20.314492 L67.3558607,23.2346301 L70.9364359,23.2346301 L70.9364359,24.9717901 L62,24.9717901 Z" id="Fill-3" fill="#4FA2F1"></path>
                    <path d="M96.7791331,13.1348598 L83.2598265,13.1348598 L83.2598265,13.5227447 C83.2598265,13.90121 83.4546242,14.0906109 83.8443927,14.0906109 L96.0001154,14.0906109 C96.3246051,14.0906109 96.5356792,14.0367847 96.6329915,13.929637 C96.7304769,13.8224893 96.7791331,13.6396484 96.7791331,13.3807782 L96.7791331,13.1348598 Z M83.2598265,11.7155307 L96.7791331,11.7155307 L96.7791331,11.2897993 C96.7791331,10.9301731 96.5356792,10.7503601 96.0485984,10.7503601 L83.9027454,10.7503601 C83.4740174,10.7503601 83.2598265,10.936565 83.2598265,11.3088067 L83.2598265,11.7155307 Z M81,25 L81,23.2496399 L89.0746676,23.2496399 L89.0746676,22.0669778 L81.2434538,22.0669778 L81.2434538,20.3162814 L89.0746676,20.3162814 L89.0746676,19.067514 L82.763049,19.067514 C82.223849,19.4902177 81.6557323,19.7739826 81.0585259,19.9189769 L81.0585259,18.0929237 C81.532447,17.9225303 81.8993593,17.6041148 82.1590896,17.1371727 C82.3085211,16.8597996 82.4513727,16.4747742 82.5876445,15.9827693 L84.4383093,15.9827693 C84.392943,16.1721702 84.2532081,16.6167408 84.0196241,17.3169857 L89.0746676,17.3169857 L89.0746676,15.8313832 L83.2402601,15.8313832 C82.6103276,15.8313832 82.1265367,15.6233114 81.7892337,15.2069995 C81.5681167,14.9358501 81.457991,14.5858118 81.457991,14.1567162 L81.457991,10.7599479 C81.457991,10.2617193 81.5746965,9.8768621 81.8086269,9.60554452 C82.1654963,9.20201638 82.7240895,9 83.4838871,9 L96.409104,9 C96.9285646,9 97.2985936,9.03784653 97.5193643,9.1135396 C97.9674856,9.27754124 98.2791619,9.58653715 98.4545664,10.0406955 C98.5324855,10.2364883 98.5714451,10.4319446 98.5714451,10.6274009 L98.5714451,14.062184 C98.5714451,14.6172664 98.412317,15.0493897 98.094234,15.3583856 C97.769398,15.6739416 97.3505397,15.8313832 96.837659,15.8313832 L90.8669796,15.8313832 L90.8669796,17.3169857 L99,17.3169857 L99,19.067514 L90.8669796,19.067514 L90.8669796,20.3162814 L98.6980203,20.3162814 L98.6980203,22.0669778 L90.8669796,22.0669778 L90.8669796,23.2496399 L98.9414741,23.2496399 L98.9414741,25 L81,25 Z" id="Fill-5" fill="#4FA2F1"></path>
                    <path d="M104.989925,22.2797431 L104.989925,20.8347378 L113.931352,20.8347378 C114.121186,20.8347378 114.244536,20.8063616 114.301739,20.7496091 C114.339537,20.7118301 114.374298,20.6206567 114.406021,20.4759211 L116.067109,20.4759211 C115.864451,21.6784691 115.165356,22.2797431 113.969319,22.2797431 L104.989925,22.2797431 Z M104.989925,19.8711211 L104.989925,18.4262837 L113.912453,18.4262837 C114.203363,18.4262837 114.368054,18.3065662 114.406021,18.0672991 L116.067109,18.0672991 C116.060528,18.3695312 115.962659,18.6749536 115.772825,18.9835661 C115.614545,19.2478513 115.389951,19.459078 115.098872,19.6164066 C114.788726,19.7861603 114.472336,19.8711211 114.149534,19.8711211 L104.989925,19.8711211 Z M104.895093,17.5006139 L104.895093,16.0556086 L106.337661,16.0556086 C107.052955,16.0556086 107.777361,16.0272324 108.511385,15.9706478 C107.733151,15.4919457 107.008576,15.0008185 106.337661,14.4969305 L108.910121,14.4969305 C109.251821,14.6987543 109.91953,15.0229822 110.913078,15.469782 C112.210023,14.8528927 113.035843,14.4247306 113.390368,14.1854635 C113.706589,13.9775949 113.865037,13.7855096 113.865037,13.6092076 C113.865037,13.4330734 113.510343,13.3447545 112.801967,13.3447545 L107.220515,13.3447545 C106.878645,13.7667041 106.56563,14.0847194 106.280795,14.2988005 C105.97723,14.5444481 105.537153,14.7993305 104.961577,15.0637836 L104.961577,13.3447545 C105.271385,13.0992749 105.556052,12.7874721 105.815745,12.4096819 C105.904334,12.2775393 106.068856,11.9311477 106.309144,11.3706751 L108.179134,11.3706751 L108.055784,11.8146205 L113.048667,11.8146205 C114.143291,11.8146205 114.924732,12.0411267 115.393157,12.4946427 C115.671411,12.7654763 115.810791,13.0866818 115.810791,13.4580915 C115.810791,13.9619796 115.535406,14.4403459 114.984972,14.8936941 C114.655758,15.1709081 114.098912,15.5392954 113.314434,15.999024 C113.618168,16.011617 113.845969,16.0210198 113.997836,16.0272324 C114.326881,16.0460379 114.535446,16.0556086 114.624372,16.0556086 L116.370844,16.0556086 L116.370844,17.5006139 L114.833105,17.5006139 C113.68769,17.5006139 112.425168,17.3494979 111.045878,17.0472657 C110.463552,17.2173553 109.881395,17.3275021 109.299238,17.3778741 C108.407103,17.4598126 107.907123,17.5006139 107.799466,17.5006139 L104.895093,17.5006139 Z M105.075477,23.2525947 L116.000625,23.2525947 C116.468713,23.2525947 116.791515,23.1486604 116.968694,22.9409598 C117.152115,22.7330913 117.244079,22.4090313 117.244079,21.9682761 L117.244079,12.0886443 C117.244079,11.5975171 117.155321,11.2669087 116.978312,11.0968192 C116.750511,10.8639326 116.376918,10.7474053 115.858208,10.7474053 L105.246243,10.7474053 C104.733607,10.7474053 104.401356,10.7977773 104.249489,10.8985214 C104.078723,11.0118584 103.955373,11.1379564 103.879271,11.2763115 C103.797094,11.4274276 103.75609,11.6982611 103.75609,12.0886443 L103.75609,21.9682761 C103.75609,22.4466424 103.860372,22.7866535 104.069273,22.9883095 C104.258938,23.1644437 104.594396,23.2525947 105.075477,23.2525947 L105.075477,23.2525947 Z M102,22.2797431 L102,11.7392304 C102,10.8387466 102.230838,10.1523439 102.692851,9.68019015 C102.958619,9.41573706 103.22118,9.23943499 103.480873,9.15128396 C103.76537,9.05053993 104.126139,9 104.562841,9 L116.285292,9 C116.994005,9 117.509847,9.10712449 117.83248,9.32120557 C118.610883,9.8187132 119,10.567913 119,11.5691408 L119,22.1192243 C119,22.956743 118.889306,23.5422338 118.667917,23.8760324 C118.161525,24.6252322 117.395946,25 116.370844,25 L104.667292,25 C103.812787,25 103.15149,24.7701357 102.683402,24.310575 C102.430121,24.0521665 102.262393,23.8098771 102.180384,23.583203 C102.060072,23.255617 102,22.8214102 102,22.2797431 L102,22.2797431 Z" id="Fill-7" fill="#4FA2F1"></path>
                    <polygon id="Fill-9" fill="#E84E53" points="23 13.5308598 23 13 4 14.445594 4 15"></polygon>
                    <polygon id="Fill-11" fill="#E84E53" points="22.4890416 13 23 12.7605801 19.5232169 5 19 5.20178013"></polygon>
                    <polygon id="Fill-13" fill="#E84E53" points="34 15 33.9640915 14.5052885 24.1335239 13 24 13.4767628"></polygon>
                    <polygon id="Fill-15" fill="#E84E53" points="9 30.6111605 8.14395721 31 2 15.2429358 2.35496571 15"></polygon>
                    <polygon id="Fill-17" fill="#E84E53" points="21.6146943 13 10 29.3407553 10.6609086 30 22 13.2583296"></polygon>
                    <polygon id="Fill-19" fill="#4FA2F1" points="2 12.7017874 17.3963456 3 18 4.13875823 2.87371954 13"></polygon>
                    <polygon id="Fill-21" fill="#4FA2F1" points="11.9691861 32 34 15.4516198 33.6785155 15 11 30.6799072"></polygon>
                    <path d="M37,14.5000823 C37,15.3284343 36.3283066,16 35.5,16 C34.6715288,16 34,15.3284343 34,14.5000823 C34,13.6715657 34.6715288,13 35.5,13 C36.3283066,13 37,13.6715657 37,14.5000823" id="Fill-23" fill="#4FA2F1"></path>
                    <g id="Group-27" transform="translate(0.000000, 12.000000)">
                        <mask id="mask-2" fill="white">
                            <use xlink:href="#path-1"></use>
                        </mask>
                        <g id="Clip-26"></g>
                        <path d="M4.98914583,2.57508 C4.98914583,3.89748 3.87227083,4.96988 2.4945625,4.96988 C1.11685417,4.96988 -2.08333333e-05,3.89748 -2.08333333e-05,2.57508 C-2.08333333e-05,1.25248 1.11685417,0.18008 2.4945625,0.18008 C3.87227083,0.18008 4.98914583,1.25248 4.98914583,2.57508" id="Fill-25" fill="#4FA2F1" mask="url(#mask-2)"></path>
                    </g>
                    <path d="M26,11.9998985 C26,13.1044594 25.1045049,14 24,14 C22.8954951,14 22,13.1044594 22,11.9998985 C22,10.8953376 22.8954951,10 24,10 C25.1045049,10 26,10.8953376 26,11.9998985" id="Fill-28" fill="#E84E53"></path>
                    <polygon id="Fill-30" fill="#4FA2F1" points="17.4353645 5 9 30.4230076 10.8367383 31 19 5"></polygon>
                    <g id="Group-34" transform="translate(16.000000, 0.000000)">
                        <mask id="mask-4" fill="white">
                            <use xlink:href="#path-3"></use>
                        </mask>
                        <g id="Clip-33"></g>
                        <path d="M5.944725,3.014175 C5.944725,4.6174875 4.6451625,5.9168625 3.0420375,5.9168625 C1.438725,5.9168625 0.1391625,4.6174875 0.1391625,3.014175 C0.1391625,1.41105 1.438725,0.1114875 3.0420375,0.1114875 C4.6451625,0.1114875 5.944725,1.41105 5.944725,3.014175" id="Fill-32" fill="#4FA2F1" mask="url(#mask-4)"></path>
                    </g>
                    <g id="Group-37" transform="translate(7.000000, 29.000000)">
                        <mask id="mask-6" fill="white">
                            <use xlink:href="#path-5"></use>
                        </mask>
                        <g id="Clip-36"></g>
                        <path d="M6.8614,3.57832222 C6.8614,5.46812778 5.32956667,7.00015556 3.43976111,7.00015556 C1.55015,7.00015556 0.0181222222,5.46812778 0.0181222222,3.57832222 C0.0181222222,1.68871111 1.55015,0.156683333 3.43976111,0.156683333 C5.32956667,0.156683333 6.8614,1.68871111 6.8614,3.57832222" id="Fill-35" fill="#4FA2F1" mask="url(#mask-6)"></path>
                    </g>
                </g>
            </g>
        </g>
    </g>
</svg>
