<?xml version="1.0" encoding="UTF-8"?>
<svg width="14px" height="14px" viewBox="0 0 14 14" version="1.1" xmlns="http://www.w3.org/2000/svg" xmlns:xlink="http://www.w3.org/1999/xlink">
    <!-- Generator: Sketch 51.1 (57501) - http://www.bohemiancoding.com/sketch -->
    <title>Fill 1 Copy</title>
    <desc>Created with Sketch.</desc>
    <defs></defs>
    <g id="UI规范" stroke="none" stroke-width="1" fill="none" fill-rule="evenodd">
        <g id="icon" transform="translate(-724.000000, -655.000000)" fill="#C3CACF">
            <path d="M730.124964,655 C726.68077,655.069493 723.943026,657.807632 724.000901,661.124991 C723.943026,664.44235 726.68077,667.180507 730.124964,667.25 C733.569212,667.180507 736.306957,664.44235 736.2491,661.124991 C736.306957,657.807632 733.569212,655.069493 730.124964,655 Z M730.093726,664.5625 C728.143495,664.523119 726.593204,662.974291 726.625651,661.097738 C726.58858,659.218079 728.140202,657.664381 730.093726,657.625 C732.047314,657.664381 733.59892,659.218079 733.561849,661.097738 C733.594296,662.974291 732.044021,664.523119 730.093726,664.5625 Z M737.786819,667.055087 L736.44179,665.710027 C736.305541,665.575682 736.119129,665.5 735.92446,665.5 C735.72981,665.5 735.543398,665.575682 735.407149,665.710027 L734.720543,666.400737 C734.426486,666.68758 734.426486,667.149897 734.720543,667.436741 L736.056123,668.781801 C736.189639,668.920914 736.377133,669 736.573434,669 C736.769828,669 736.957304,668.920914 737.090764,668.781801 L737.786819,668.09109 C738.07106,667.800365 738.07106,667.345812 737.786819,667.055087 Z" id="Fill-1-Copy"></path>
        </g>
    </g>
</svg>
