<?xml version="1.0" encoding="UTF-8"?>
<svg width="40px" height="40px" viewBox="0 0 40 40" version="1.1" xmlns="http://www.w3.org/2000/svg" xmlns:xlink="http://www.w3.org/1999/xlink">
    <!-- Generator: Sketch 46.2 (44496) - http://www.bohemiancoding.com/sketch -->
    <title>Group 4 Copy 9</title>
    <desc>Created with Sketch.</desc>
    <defs>
        <path d="M13,14 L5.30769231,14 L5.30769231,3.5 L13,3.5 L13,14 Z M11.4615009,12.5000091 L11.4615009,11.1500092 L10.0768855,11.1500092 L10.0768855,12.5000091 L11.4615009,12.5000091 Z M11.4615009,9.42500454 L11.4615009,8.07500458 L10.0768855,8.07500458 L10.0768855,9.42500454 L11.4615009,9.42500454 Z M11.4615009,6.34999996 L11.4615009,5 L10.0768855,5 L10.0768855,6.34999996 L11.4615009,6.34999996 Z M8.23076919,12.5000091 L8.23076919,11.1500092 L6.84615385,11.1500092 L6.84615385,12.5000091 L8.23076919,12.5000091 Z M8.23076919,9.42500454 L8.23076919,8.07500458 L6.84615385,8.07500458 L6.84615385,9.42500454 L8.23076919,9.42500454 Z M4.15384615,2 L11.4615385,2 L11.4615385,2.75 L4.53846154,2.75 L4.53846154,13.25 L3,13.25 L3,2 L4.15384615,2 Z M8.23076919,6.34999996 L6.84615385,6.34999996 L6.84615385,5 L8.23076919,5 L8.23076919,6.34999996 Z" id="path-1"></path>
    </defs>
    <g id="Symbols" stroke="none" stroke-width="1" fill="none" fill-rule="evenodd" opacity="0.6">
        <g id="Group-4-Copy-9">
            <g id="Group-7">
                <g transform="translate(12.000000, 12.000000)">
                    <polygon id="Fill-43" fill="#008CFF" opacity="0" points="0 16 16 16 16 0 0 0"></polygon>
                    <mask id="mask-2" fill="white">
                        <use xlink:href="#path-1"></use>
                    </mask>
                    <use id="Combined-Shape" fill="#FFFFFF" xlink:href="#path-1"></use>
                </g>
            </g>
        </g>
    </g>
</svg>