<?xml version="1.0" encoding="UTF-8"?>
<svg width="44px" height="44px" viewBox="0 0 44 44" version="1.1" xmlns="http://www.w3.org/2000/svg" xmlns:xlink="http://www.w3.org/1999/xlink">
    <!-- Generator: Sketch Beta 44 (41325) - http://www.bohemiancoding.com/sketch -->
    <title>Group 31 Copy 2</title>
    <desc>Created with Sketch Beta.</desc>
    <defs>
        <polygon id="path-1" points="0 0 20 0 20 20 0 20"></polygon>
    </defs>
    <g id="Symbols" stroke="none" stroke-width="1" fill="none" fill-rule="evenodd" opacity="0.6">
        <g id="Group-31-Copy-2">
            <g id="Group-14-Copy">
                <g transform="translate(12.000000, 12.000000)">
                    <g id="Shape-Copy-12" opacity="0">
                        <use fill="#E8D8D8" fill-rule="evenodd" xlink:href="#path-1"></use>
                        <path stroke="#D0D0D0" stroke-width="2" d="M1,1 L1,19 L19,19 L19,1 L1,1 Z"></path>
                    </g>
                    <g id="Group-13" transform="translate(3.000000, 3.000000)" fill="#FFFFFF">
                        <path d="M0,2 L7,0 L14,2 L14,4 L0,4 L0,2 Z M0,11 L14,11 L14,14 L0,14 L0,11 Z M2,5 L4,5 L4,10 L2,10 L2,5 Z M6,5 L8,5 L8,10 L6,10 L6,5 Z M10,5 L12,5 L12,10 L10,10 L10,5 Z" id="Combined-Shape"></path>
                    </g>
                </g>
            </g>
        </g>
    </g>
</svg>