<?xml version="1.0" encoding="UTF-8" standalone="no"?>
<svg width="44px" height="44px" viewBox="0 0 44 44" version="1.1" xmlns="http://www.w3.org/2000/svg" xmlns:xlink="http://www.w3.org/1999/xlink">
    <!-- Generator: Sketch 39.1 (31720) - http://www.bohemiancoding.com/sketch -->
    <title>Slice 2</title>
    <desc>Created with Sketch.</desc>
    <defs>
        <polygon id="path-1" points="0 0 20 0 20 20 0 20"></polygon>
        <mask id="mask-2" maskContentUnits="userSpaceOnUse" maskUnits="objectBoundingBox" x="0" y="0" width="20" height="20" fill="white">
            <use xlink:href="#path-1"></use>
        </mask>
    </defs>
    <g id="Page-1" stroke="none" stroke-width="1" fill="none" fill-rule="evenodd">
        <g id="Group-21-Copy-3" transform="translate(12.000000, 12.000000)">
            <g id="Group-17-Copy-3">
                <use id="Shape-Copy-11" stroke="#D0D0D0" mask="url(#mask-2)" stroke-width="4" fill="#E8D8D8" opacity="0" xlink:href="#path-1"></use>
                <g id="Group-6" transform="translate(2.000000, 2.000000)" fill="#757F89">
                    <path d="M4.70710678,5 L7.04792957,2.65917721 C7.30691626,2.8721391 7.63852637,3 8,3 C8.36147363,3 8.69308374,2.8721391 8.95207043,2.65917721 L11.2928932,5 L4.70710678,5 Z M3.29289322,5 L6.52402882,1.7688644 C6.50824291,1.68163479 6.5,1.59178001 6.5,1.5 C6.5,0.671572875 7.17157288,0 8,0 C8.82842712,0 9.5,0.671572875 9.5,1.5 C9.5,1.59178001 9.49175709,1.68163479 9.47597118,1.7688644 L12.7071068,5 L16,5 L16,16 L0,16 L0,5 L3.29289322,5 Z M2,12 L12,12 L12,13 L2,13 L2,12 Z M2,10 L14,10 L14,11 L2,11 L2,10 Z M2,8 L8,8 L8,9 L2,9 L2,8 Z" id="Combined-Shape"></path>
                </g>
            </g>
        </g>
    </g>
</svg>