<?xml version="1.0" encoding="UTF-8" standalone="no"?>
<svg width="44px" height="44px" viewBox="0 0 44 44" version="1.1" xmlns="http://www.w3.org/2000/svg" xmlns:xlink="http://www.w3.org/1999/xlink">
    <!-- Generator: Sketch 39.1 (31720) - http://www.bohemiancoding.com/sketch -->
    <title>Slice 3</title>
    <desc>Created with Sketch.</desc>
    <defs>
        <polygon id="path-1" points="0 0 20 0 20 20 0 20"></polygon>
        <mask id="mask-2" maskContentUnits="userSpaceOnUse" maskUnits="objectBoundingBox" x="0" y="0" width="20" height="20" fill="white">
            <use xlink:href="#path-1"></use>
        </mask>
    </defs>
    <g id="Page-1" stroke="none" stroke-width="1" fill="none" fill-rule="evenodd">
        <g id="Group-14-Copy" transform="translate(12.000000, 12.000000)">
            <use id="Shape-Copy-12" stroke="#D0D0D0" mask="url(#mask-2)" stroke-width="4" fill="#E8D8D8" opacity="0" xlink:href="#path-1"></use>
            <g id="Group-13" transform="translate(3.000000, 3.000000)" fill="#6E80DE">
                <path d="M0,2 L7,0 L14,2 L14,4 L0,4 L0,2 Z M0,11 L14,11 L14,14 L0,14 L0,11 Z M2,5 L4,5 L4,10 L2,10 L2,5 Z M6,5 L8,5 L8,10 L6,10 L6,5 Z M10,5 L12,5 L12,10 L10,10 L10,5 Z" id="Combined-Shape"></path>
            </g>
        </g>
    </g>
</svg>