<?xml version="1.0" encoding="UTF-8"?>
<svg width="44px" height="44px" viewBox="0 0 44 44" version="1.1" xmlns="http://www.w3.org/2000/svg" xmlns:xlink="http://www.w3.org/1999/xlink">
    <!-- Generator: Sketch 45.1 (43504) - http://www.bohemiancoding.com/sketch -->
    <title>Group 29 Copy</title>
    <desc>Created with Sketch.</desc>
    <defs>
        <polygon id="path-1" points="0 0 20 0 20 20 0 20"></polygon>
    </defs>
    <g id="Symbols" stroke="none" stroke-width="1" fill="none" fill-rule="evenodd" opacity="0.6">
        <g id="Group-29-Copy">
            <g id="Group-21-Copy-3">
                <g transform="translate(12.000000, 12.000000)">
                    <g id="Group-17-Copy-3">
                        <g id="Shape-Copy-11" opacity="0">
                            <use fill="#E7D8D8" fill-rule="evenodd" xlink:href="#path-1"></use>
                            <path stroke="#D0D0D0" stroke-width="2" d="M1,1 L1,19 L19,19 L19,1 L1,1 Z"></path>
                        </g>
                        <g id="Group-6" transform="translate(2.000000, 2.000000)" fill="#757F89">
                            <path d="M11.2928932,5 L8.95207043,2.65917721 C8.69308374,2.8721391 8.36147363,3 8,3 C7.63852637,3 7.30691626,2.8721391 7.04792957,2.65917721 L4.70710678,5 L11.2928932,5 Z M12.7071068,5 L16,5 L16,16 L0,16 L0,5 L3.29289322,5 L6.52402882,1.7688644 C6.50824291,1.68163479 6.5,1.59178001 6.5,1.5 C6.5,0.671572875 7.17157288,0 8,0 C8.82842712,0 9.5,0.671572875 9.5,1.5 C9.5,1.59178001 9.49175709,1.68163479 9.47597118,1.7688644 L12.7071068,5 Z M2,12 L2,13 L12,13 L12,12 L2,12 Z M2,10 L2,11 L14,11 L14,10 L2,10 Z M2,8 L2,9 L8,9 L8,8 L2,8 Z" id="Combined-Shape"></path>
                        </g>
                    </g>
                </g>
            </g>
        </g>
    </g>
</svg>