<?xml version="1.0" encoding="UTF-8" standalone="no"?>
<svg width="44px" height="44px" viewBox="0 0 44 44" version="1.1" xmlns="http://www.w3.org/2000/svg" xmlns:xlink="http://www.w3.org/1999/xlink">
    <!-- Generator: Sketch 39.1 (31720) - http://www.bohemiancoding.com/sketch -->
    <title>Slice 4</title>
    <desc>Created with Sketch.</desc>
    <defs>
        <polygon id="path-1" points="0 0 20 0 20 20 0 20"></polygon>
        <mask id="mask-2" maskContentUnits="userSpaceOnUse" maskUnits="objectBoundingBox" x="0" y="0" width="20" height="20" fill="white">
            <use xlink:href="#path-1"></use>
        </mask>
        <path d="M11,1 L11,0 L0,0 L0,13 L1,13 L1,1 L11,1 Z" id="path-3"></path>
        <mask id="mask-4" maskContentUnits="userSpaceOnUse" maskUnits="objectBoundingBox" x="0" y="0" width="11" height="13" fill="white">
            <use xlink:href="#path-3"></use>
        </mask>
    </defs>
    <g id="Page-1" stroke="none" stroke-width="1" fill="none" fill-rule="evenodd">
        <g id="Group-12" transform="translate(12.000000, 12.000000)">
            <use id="Shape-Copy-13" stroke="#D0D0D0" mask="url(#mask-2)" stroke-width="4" fill="#E8D8D8" opacity="0" xlink:href="#path-1"></use>
            <g id="Group-11" transform="translate(3.000000, 2.000000)">
                <path d="M8.14711432,6.91506351 L8.39711432,7.34807621 L7.96410162,7.59807621 L8.46410162,8.46410162 L10.1961524,7.46410162 L9.69615242,6.59807621 L9.26313972,6.84807621 L8.26313972,5.1160254 L8.69615242,4.8660254 L8.19615242,4 L6.46410162,5 L6.96410162,5.8660254 L7.39711432,5.6160254 L7.64711432,6.04903811 L3.75,8.29903811 L4.25,9.16506351 L8.14711432,6.91506351 Z M2,2 L14,2 L14,16 L2,16 L2,2 Z M8,10 L12,10 L12,11 L8,11 L8,10 Z M4,12 L12,12 L12,13 L4,13 L4,12 Z" id="Combined-Shape" fill="#D7A048"></path>
                <use id="Combined-Shape" stroke="#D89F45" mask="url(#mask-4)" stroke-width="2" xlink:href="#path-3"></use>
            </g>
        </g>
    </g>
</svg>