<?xml version="1.0" encoding="UTF-8" standalone="no"?>
<svg width="44px" height="44px" viewBox="0 0 44 44" version="1.1" xmlns="http://www.w3.org/2000/svg" xmlns:xlink="http://www.w3.org/1999/xlink">
    <!-- Generator: Sketch 39.1 (31720) - http://www.bohemiancoding.com/sketch -->
    <title>Slice</title>
    <desc>Created with Sketch.</desc>
    <defs>
        <polygon id="path-1" points="0 0 20 0 20 20 0 20"></polygon>
        <mask id="mask-2" maskContentUnits="userSpaceOnUse" maskUnits="objectBoundingBox" x="0" y="0" width="20" height="20" fill="white">
            <use xlink:href="#path-1"></use>
        </mask>
    </defs>
    <g id="Page-1" stroke="none" stroke-width="1" fill="none" fill-rule="evenodd">
        <g id="Group-25-Copy" transform="translate(12.000000, 12.000000)">
            <g id="Group-16-Copy-5" stroke="#D0D0D0" stroke-width="4" fill="#E8D8D8" opacity="0">
                <use id="Shape-Copy-9" mask="url(#mask-2)" xlink:href="#path-1"></use>
            </g>
            <path d="M9.92820323,10.1961524 L10.9282032,11.9282032 L10.0621778,12.4282032 L11.0621778,14.160254 L15.3923048,11.660254 L14.3923048,9.92820323 L13.5262794,10.4282032 L10.5262794,5.23205081 L11.3923048,4.73205081 L10.3923048,3 L6.06217783,5.5 L7.06217783,7.23205081 L7.92820323,6.73205081 L8.92820323,8.46410162 L2,12.4641016 L3,14.1961524 L9.92820323,10.1961524 Z M10.6961524,16.330127 L17.6961524,16.330127 L17.6961524,18.330127 L10.6961524,18.330127 L10.6961524,16.330127 Z" id="Combined-Shape" fill="#B99465"></path>
        </g>
    </g>
</svg>