<?xml version="1.0" encoding="UTF-8"?>
<svg width="16px" height="18px" viewBox="0 0 16 18" version="1.1" xmlns="http://www.w3.org/2000/svg" xmlns:xlink="http://www.w3.org/1999/xlink">
    <!-- Generator: Sketch 53 (72520) - https://sketchapp.com -->
    <title>Fill 1</title>
    <desc>Created with Sketch.</desc>
    <g id="UI规范" stroke="none" stroke-width="1" fill="none" fill-rule="evenodd">
        <g id="icon" transform="translate(-834.000000, -406.000000)" fill="#FFFFFF">
            <path d="M841.816551,415.482139 C844.510481,415.482139 846.702916,413.355234 846.702916,410.740756 C846.702916,408.126679 844.510583,406 841.816551,406 C839.122621,406 836.930668,408.12698 836.930668,410.740756 C836.930668,413.354833 839.122722,415.482139 841.816551,415.482139 Z M839.942961,416.349992 C836.540416,416.349992 834,418.621522 834,421.920567 L834,422.275767 C834,424 836.722762,424 840.168998,424 L843.83019,424 C847.14084,424 850,424 850,422.275767 L850,421.920567 C850,418.622124 847.459077,416.349992 844.057115,416.349992 L839.942759,416.349992 L839.942961,416.349992 Z" id="Fill-1"></path>
        </g>
    </g>
</svg>
