<?xml version="1.0" encoding="UTF-8"?>
<svg width="34px" height="34px" viewBox="0 0 34 34" version="1.1" xmlns="http://www.w3.org/2000/svg" xmlns:xlink="http://www.w3.org/1999/xlink">
    <!-- Generator: Sketch 45.1 (43504) - http://www.bohemiancoding.com/sketch -->
    <title>Group 4 Copy 23</title>
    <desc>Created with Sketch.</desc>
    <defs>
        <polygon id="path-1" points="0 0 18 0 18 18 0 18"></polygon>
    </defs>
    <g id="Symbols" stroke="none" stroke-width="1" fill="none" fill-rule="evenodd">
        <g id="Group-4-Copy-23">
            <g id="Group-5">
                <g transform="translate(8.000000, 8.000000)">
                    <g id="Shape-Copy-22" opacity="0">
                        <use fill="#E7D8D8" fill-rule="evenodd" xlink:href="#path-1"></use>
                        <path stroke="#D0D0D0" stroke-width="2" d="M1,1 L1,17 L17,17 L17,1 L1,1 Z"></path>
                    </g>
                    <path d="M11.8311624,11.0582137 C12.2518212,10.4805736 12.5,9.76926942 12.5,9 C12.5,7.94152017 12.0301352,6.99278315 11.287603,6.35098631 L12.2168541,4.97331488 C12.3085472,4.99083126 12.4032029,5 12.5,5 C13.3284271,5 14,4.32842712 14,3.5 C14,2.67157288 13.3284271,2 12.5,2 C11.6715729,2 11,2.67157288 11,3.5 C11,3.82080109 11.1007062,4.11808099 11.2722294,4.36195048 L10.3285793,5.76096923 C9.91891441,5.59275512 9.47028926,5.5 9,5.5 C7.25848388,5.5 5.81404261,6.77192861 5.54496202,8.4375 L3.82691503,8.4375 C3.64691793,8.17340366 3.34370926,8 3,8 C2.44771525,8 2,8.44771525 2,9 C2,9.55228475 2.44771525,10 3,10 C3.34370926,10 3.64691793,9.82659634 3.82691503,9.5625 L5.54496202,9.5625 C5.81404261,11.2280714 7.25848388,12.5 9,12.5 C9.75765047,12.5 10.4590735,12.2592615 11.0319487,11.8501048 L12.2222811,13.0827301 C12.080229,13.3574776 12,13.6693696 12,14 C12,15.1045695 12.8954305,16 14,16 C15.1045695,16 16,15.1045695 16,14 C16,12.8954305 15.1045695,12 14,12 C13.635453,12 13.2936861,12.0975333 12.9993705,12.2679287 L11.8311624,11.0582137 Z" id="Combined-Shape" fill="#7B66CA"></path>
                </g>
            </g>
        </g>
    </g>
</svg>